<?xml version="1.0" encoding="UTF-8" standalone="no"?>
<!DOCTYPE svg PUBLIC "-//W3C//DTD SVG 1.1//EN"
 "http://www.w3.org/Graphics/SVG/1.1/DTD/svg11.dtd">
<!-- Generated by graphviz version 2.49.3 (20211027.1534)
 -->
<!-- Title: Inter&#45;Task communication Pages: 1 -->
<svg width="374pt" height="101pt"
 viewBox="0.00 0.00 374.00 101.00" xmlns="http://www.w3.org/2000/svg" xmlns:xlink="http://www.w3.org/1999/xlink">
<g id="graph0" class="graph" transform="scale(1 1) rotate(0) translate(4 97)">
<title>Inter&#45;Task communication</title>
<polygon fill="white" stroke="transparent" points="-4,4 -4,-97 370,-97 370,4 -4,4"/>
<!-- Node5 -->
<g id="node1" class="node">
<title>Node5</title>
<g id="a_node1"><a xlink:href="group__qeventflags.html" target="_top" xlink:title="API interface for the built&#45;in&#45;task Event Flags.">
<polygon fill="white" stroke="black" points="364.5,-93 296.5,-93 296.5,-74 364.5,-74 364.5,-93"/>
<text text-anchor="middle" x="330.5" y="-81" font-family="Helvetica,sans-Serif" font-size="10.00">Event Flags</text>
</a>
</g>
</g>
<!-- Node4 -->
<g id="node2" class="node">
<title>Node4</title>
<g id="a_node2"><a xlink:href="group__qnot.html" target="_top" xlink:title="API interface for task Notifications.">
<polygon fill="white" stroke="black" points="366,-56 295,-56 295,-37 366,-37 366,-56"/>
<text text-anchor="middle" x="330.5" y="-44" font-family="Helvetica,sans-Serif" font-size="10.00">Notifications</text>
</a>
</g>
</g>
<!-- Node2 -->
<g id="node3" class="node">
<title>Node2</title>
<g id="a_node3"><a xlink:href="group__qos.html" target="_top" xlink:title=" ">
<polygon fill="white" stroke="black" points="94,-56 0,-56 0,-37 94,-37 94,-56"/>
<text text-anchor="middle" x="47" y="-44" font-family="Helvetica,sans-Serif" font-size="10.00">Operative System</text>
</a>
</g>
</g>
<!-- Node1 -->
<g id="node4" class="node">
<title>Node1</title>
<g id="a_node4"><a xlink:title="Inter&#45;Task communication primitives : Queues, Notifications and Event&#45;flags.">
<polygon fill="#bfbfbf" stroke="black" points="259,-56 130,-56 130,-37 259,-37 259,-56"/>
<text text-anchor="middle" x="194.5" y="-44" font-family="Helvetica,sans-Serif" font-size="10.00">Inter&#45;Task communication</text>
</a>
</g>
</g>
<!-- Node2&#45;&gt;Node1 -->
<g id="edge1" class="edge">
<title>Node2&#45;&gt;Node1</title>
<path fill="none" stroke="black" d="M104.15,-46.5C112.6,-46.5 121.36,-46.5 129.95,-46.5"/>
<polygon fill="black" stroke="black" points="104.04,-43 94.04,-46.5 104.04,-50 104.04,-43"/>
</g>
<!-- Node1&#45;&gt;Node5 -->
<g id="edge4" class="edge">
<title>Node1&#45;&gt;Node5</title>
<path fill="none" stroke="black" d="M239.7,-58.7C258.21,-63.82 279.37,-69.66 296.49,-74.39"/>
<polygon fill="black" stroke="black" points="240.58,-55.32 230.01,-56.03 238.72,-62.06 240.58,-55.32"/>
</g>
<!-- Node1&#45;&gt;Node4 -->
<g id="edge3" class="edge">
<title>Node1&#45;&gt;Node4</title>
<path fill="none" stroke="black" d="M269.42,-46.5C278.3,-46.5 287.02,-46.5 294.94,-46.5"/>
<polygon fill="black" stroke="black" points="269.36,-43 259.36,-46.5 269.36,-50 269.36,-43"/>
</g>
<!-- Node3 -->
<g id="node5" class="node">
<title>Node3</title>
<g id="a_node5"><a xlink:href="group__qqueues.html" target="_top" xlink:title="API interface to create and handle Queues.">
<polygon fill="white" stroke="black" points="355.5,-19 305.5,-19 305.5,0 355.5,0 355.5,-19"/>
<text text-anchor="middle" x="330.5" y="-7" font-family="Helvetica,sans-Serif" font-size="10.00">Queues</text>
</a>
</g>
</g>
<!-- Node1&#45;&gt;Node3 -->
<g id="edge2" class="edge">
<title>Node1&#45;&gt;Node3</title>
<path fill="none" stroke="black" d="M239.74,-34.29C261.55,-28.26 287.03,-21.23 305.25,-16.2"/>
<polygon fill="black" stroke="black" points="238.72,-30.94 230.01,-36.97 240.58,-37.68 238.72,-30.94"/>
</g>
</g>
</svg>
