<?xml version="1.0" encoding="UTF-8" standalone="no"?>
<!DOCTYPE svg PUBLIC "-//W3C//DTD SVG 1.1//EN"
 "http://www.w3.org/Graphics/SVG/1.1/DTD/svg11.dtd">
<!-- Generated by graphviz version 7.1.0 (20230121.1956)
 -->
<!-- Title: Utilities Pages: 1 -->
<svg width="216pt" height="273pt"
 viewBox="0.00 0.00 216.00 273.00" xmlns="http://www.w3.org/2000/svg" xmlns:xlink="http://www.w3.org/1999/xlink">
<g id="graph0" class="graph" transform="scale(1 1) rotate(0) translate(4 269)">
<title>Utilities</title>
<!-- Node3 -->
<g id="node1" class="node">
<title>Node3</title>
<g id="a_node1"><a xlink:href="group__qbsbuffers.html" target="_top" xlink:title="An interrupt&#45;safe byte&#45;sized ring buffer interface.">
<polygon fill="white" stroke="#666666" points="194.5,-265 99.5,-265 99.5,-246 194.5,-246 194.5,-265"/>
<text text-anchor="middle" x="147" y="-253" font-family="Helvetica,sans-Serif" font-size="10.00">Byte&#45;Sized buffers</text>
</a>
</g>
</g>
<!-- Node4 -->
<g id="node2" class="node">
<title>Node4</title>
<g id="a_node2"><a xlink:href="group__qedgecheck.html" target="_top" xlink:title="An interface to manage and simplify the value(with edge&#45;checking) of incoming digital&#45;signal groups.">
<polygon fill="white" stroke="#666666" points="197.5,-227.5 96.5,-227.5 96.5,-197.5 197.5,-197.5 197.5,-227.5"/>
<text text-anchor="start" x="104.5" y="-215.5" font-family="Helvetica,sans-Serif" font-size="10.00">I/O Groups for edge</text>
<text text-anchor="middle" x="147" y="-204.5" font-family="Helvetica,sans-Serif" font-size="10.00"> checking</text>
</a>
</g>
</g>
<!-- Node8 -->
<g id="node3" class="node">
<title>Node8</title>
<g id="a_node3"><a xlink:href="group__qflm.html" target="_top" xlink:title="General purpose Function&#45;like Macros.">
<polygon fill="white" stroke="#666666" points="208,-179 86,-179 86,-160 208,-160 208,-179"/>
<text text-anchor="middle" x="147" y="-167" font-family="Helvetica,sans-Serif" font-size="10.00">General purpose macros</text>
</a>
</g>
</g>
<!-- Node5 -->
<g id="node4" class="node">
<title>Node5</title>
<g id="a_node4"><a xlink:href="group__qioutils.html" target="_top" xlink:title="API for input/output utilities and safe string interfaces.">
<polygon fill="white" stroke="#666666" points="173.5,-142 120.5,-142 120.5,-123 173.5,-123 173.5,-142"/>
<text text-anchor="middle" x="147" y="-130" font-family="Helvetica,sans-Serif" font-size="10.00">I/O Utils</text>
</a>
</g>
</g>
<!-- Node2 -->
<g id="node5" class="node">
<title>Node2</title>
<g id="a_node5"><a xlink:href="group__qlists.html" target="_top" xlink:title="The provided list implementation uses a generic doubly&#45;linked approach in which each node,...">
<polygon fill="white" stroke="#666666" points="202,-104.5 92,-104.5 92,-74.5 202,-74.5 202,-104.5"/>
<text text-anchor="start" x="100" y="-92.5" font-family="Helvetica,sans-Serif" font-size="10.00">Generic double&#45;linked</text>
<text text-anchor="middle" x="147" y="-81.5" font-family="Helvetica,sans-Serif" font-size="10.00"> lists</text>
</a>
</g>
</g>
<!-- Node6 -->
<g id="node6" class="node">
<title>Node6</title>
<g id="a_node6"><a xlink:href="group__qresponse.html" target="_top" xlink:title="API to simplify the handling of requested responses from terminal interfaces.">
<polygon fill="white" stroke="#666666" points="194,-56 100,-56 100,-37 194,-37 194,-56"/>
<text text-anchor="middle" x="147" y="-44" font-family="Helvetica,sans-Serif" font-size="10.00">Response handler</text>
</a>
</g>
</g>
<!-- Node7 -->
<g id="node7" class="node">
<title>Node7</title>
<g id="a_node7"><a xlink:href="group__qtrace.html" target="_top" xlink:title="API interfaces to print out trace and debug messages.">
<polygon fill="white" stroke="#666666" points="167.5,-19 126.5,-19 126.5,0 167.5,0 167.5,-19"/>
<text text-anchor="middle" x="147" y="-7" font-family="Helvetica,sans-Serif" font-size="10.00">Trace</text>
</a>
</g>
</g>
<!-- Node1 -->
<g id="node8" class="node">
<title>Node1</title>
<g id="a_node8"><a xlink:title=" ">
<polygon fill="#999999" stroke="#666666" points="50,-142 0,-142 0,-123 50,-123 50,-142"/>
<text text-anchor="middle" x="25" y="-130" font-family="Helvetica,sans-Serif" font-size="10.00">Utilities</text>
</a>
</g>
</g>
<!-- Node1&#45;&gt;Node3 -->
<g id="edge2" class="edge">
<title>Node1&#45;&gt;Node3</title>
<path fill="none" stroke="black" d="M32.76,-153.24C41.45,-176.74 58.75,-214.59 86,-236.5 90.6,-240.2 95.93,-243.18 101.47,-245.58"/>
<polygon fill="black" stroke="black" points="36.08,-152.15 29.49,-143.86 29.47,-154.45 36.08,-152.15"/>
</g>
<!-- Node1&#45;&gt;Node4 -->
<g id="edge3" class="edge">
<title>Node1&#45;&gt;Node4</title>
<path fill="none" stroke="black" d="M42.14,-150.75C53.48,-162.72 69.51,-178.03 86,-188.5 90.93,-191.63 96.32,-194.47 101.8,-197.03"/>
<polygon fill="black" stroke="black" points="44.82,-148.5 35.48,-143.5 39.67,-153.23 44.82,-148.5"/>
</g>
<!-- Node1&#45;&gt;Node8 -->
<g id="edge7" class="edge">
<title>Node1&#45;&gt;Node8</title>
<path fill="none" stroke="black" d="M61.47,-143.83C69.52,-146.38 78.05,-149.05 86,-151.5 94.63,-154.16 103.97,-156.99 112.65,-159.59"/>
<polygon fill="black" stroke="black" points="62.53,-140.49 51.94,-140.81 60.41,-147.17 62.53,-140.49"/>
</g>
<!-- Node1&#45;&gt;Node5 -->
<g id="edge4" class="edge">
<title>Node1&#45;&gt;Node5</title>
<path fill="none" stroke="black" d="M61.68,-132.5C80.44,-132.5 103.02,-132.5 120.09,-132.5"/>
<polygon fill="black" stroke="black" points="61.8,-129 51.8,-132.5 61.8,-136 61.8,-129"/>
</g>
<!-- Node1&#45;&gt;Node2 -->
<g id="edge1" class="edge">
<title>Node1&#45;&gt;Node2</title>
<path fill="none" stroke="black" d="M60.78,-120.04C73.91,-115.33 89.01,-109.92 102.82,-104.97"/>
<polygon fill="black" stroke="black" points="59.94,-116.62 51.71,-123.29 62.3,-123.21 59.94,-116.62"/>
</g>
<!-- Node1&#45;&gt;Node6 -->
<g id="edge5" class="edge">
<title>Node1&#45;&gt;Node6</title>
<path fill="none" stroke="black" d="M38.69,-113.45C49.6,-98.44 66.61,-78.03 86,-65.5 91.6,-61.88 97.94,-58.91 104.34,-56.48"/>
<polygon fill="black" stroke="black" points="35.88,-111.36 33.02,-121.57 41.62,-115.37 35.88,-111.36"/>
</g>
<!-- Node1&#45;&gt;Node7 -->
<g id="edge6" class="edge">
<title>Node1&#45;&gt;Node7</title>
<path fill="none" stroke="black" d="M32.76,-111.76C41.45,-88.26 58.75,-50.41 86,-28.5 97.5,-19.26 113.55,-14.48 126.16,-12.03"/>
<polygon fill="black" stroke="black" points="29.47,-110.55 29.49,-121.14 36.08,-112.85 29.47,-110.55"/>
</g>
</g>
</svg>
