<?xml version="1.0" encoding="UTF-8" standalone="no"?>
<!DOCTYPE svg PUBLIC "-//W3C//DTD SVG 1.1//EN"
 "http://www.w3.org/Graphics/SVG/1.1/DTD/svg11.dtd">
<!-- Generated by graphviz version 12.1.2 (20240928.0832)
 -->
<!-- Title: Operative System Pages: 1 -->
<svg width="266pt" height="212pt"
 viewBox="0.00 0.00 265.75 212.25" xmlns="http://www.w3.org/2000/svg" xmlns:xlink="http://www.w3.org/1999/xlink">
<g id="graph0" class="graph" transform="scale(1 1) rotate(0) translate(4 208.25)">
<title>Operative System</title>
<!-- Node5 -->
<g id="Node000005" class="node">
<title>Node5</title>
<g id="a_Node000005"><a xlink:href="group__qclock.html" target="_top" xlink:title="Clock and time manipulation interface used by the entire OS.">
<polygon fill="white" stroke="#666666" points="213.88,-204.25 173.12,-204.25 173.12,-185 213.88,-185 213.88,-204.25"/>
<text text-anchor="middle" x="193.5" y="-190.75" font-family="Helvetica,sans-Serif" font-size="10.00">Clock</text>
</a>
</g>
</g>
<!-- Node6 -->
<g id="Node000006" class="node">
<title>Node6</title>
<g id="a_Node000006"><a xlink:href="group__qcritical.html" target="_top" xlink:title="APIs to handle entry/exit actions in Critical sections.">
<polygon fill="white" stroke="#666666" points="216.5,-167.25 170.5,-167.25 170.5,-148 216.5,-148 216.5,-167.25"/>
<text text-anchor="middle" x="193.5" y="-153.75" font-family="Helvetica,sans-Serif" font-size="10.00">Critical</text>
</a>
</g>
</g>
<!-- Node1 -->
<g id="Node000001" class="node">
<title>Node1</title>
<g id="a_Node000001"><a xlink:title=" ">
<polygon fill="#999999" stroke="#666666" points="93.25,-111.25 0,-111.25 0,-92 93.25,-92 93.25,-111.25"/>
<text text-anchor="middle" x="46.62" y="-97.75" font-family="Helvetica,sans-Serif" font-size="10.00">Operative System</text>
</a>
</g>
</g>
<!-- Node1&#45;&gt;Node5 -->
<g id="edge4" class="edge">
<title>Node1&#45;&gt;Node5</title>
<path fill="none" stroke="black" d="M63.24,-120.27C78.44,-137.29 103.04,-161.96 129.25,-176.62 142.8,-184.21 159.8,-188.81 172.77,-191.47"/>
<polygon fill="black" stroke="black" points="66,-118.12 56.8,-112.86 60.72,-122.71 66,-118.12"/>
</g>
<!-- Node1&#45;&gt;Node6 -->
<g id="edge5" class="edge">
<title>Node1&#45;&gt;Node6</title>
<path fill="none" stroke="black" d="M76.97,-116.66C92.3,-124.16 111.52,-133.02 129.25,-139.62 142.62,-144.61 158.02,-149.01 170.27,-152.22"/>
<polygon fill="black" stroke="black" points="78.91,-113.72 68.4,-112.4 75.8,-119.99 78.91,-113.72"/>
</g>
<!-- Node4 -->
<g id="Node000004" class="node">
<title>Node4</title>
<g id="a_Node000004"><a xlink:href="group__qpriv.html" target="_top" xlink:title="Inter&#45;Task communication primitives : Queues, Notifications and Event&#45;flags.">
<polygon fill="white" stroke="#666666" points="257.75,-130.25 129.25,-130.25 129.25,-111 257.75,-111 257.75,-130.25"/>
<text text-anchor="middle" x="193.5" y="-116.75" font-family="Helvetica,sans-Serif" font-size="10.00">Inter&#45;Task communication</text>
</a>
</g>
</g>
<!-- Node1&#45;&gt;Node4 -->
<g id="edge3" class="edge">
<title>Node1&#45;&gt;Node4</title>
<path fill="none" stroke="black" d="M104.84,-109.13C112.76,-110.17 120.93,-111.24 128.96,-112.29"/>
<polygon fill="black" stroke="black" points="105.34,-105.66 94.97,-107.83 104.42,-112.6 105.34,-105.66"/>
</g>
<!-- Node2 -->
<g id="Node000002" class="node">
<title>Node2</title>
<g id="a_Node000002"><a xlink:href="group__qtaskcreation.html" target="_top" xlink:title="Kernel API interface to create/remove tasks and perform special OS operations.">
<polygon fill="white" stroke="#666666" points="243.5,-93.25 143.5,-93.25 143.5,-74 243.5,-74 243.5,-93.25"/>
<text text-anchor="middle" x="193.5" y="-79.75" font-family="Helvetica,sans-Serif" font-size="10.00">Scheduler Interface</text>
</a>
</g>
</g>
<!-- Node1&#45;&gt;Node2 -->
<g id="edge1" class="edge">
<title>Node1&#45;&gt;Node2</title>
<path fill="none" stroke="black" d="M104.87,-94.51C117.55,-92.94 130.87,-91.28 143.2,-89.75"/>
<polygon fill="black" stroke="black" points="104.46,-91.04 94.97,-95.74 105.32,-97.98 104.46,-91.04"/>
</g>
<!-- Node3 -->
<g id="Node000003" class="node">
<title>Node3</title>
<g id="a_Node000003"><a xlink:href="group__qtaskmanip.html" target="_top" xlink:title="API interface to manage tasks.">
<polygon fill="white" stroke="#666666" points="235.62,-56.25 151.38,-56.25 151.38,-37 235.62,-37 235.62,-56.25"/>
<text text-anchor="middle" x="193.5" y="-42.75" font-family="Helvetica,sans-Serif" font-size="10.00">Managing tasks</text>
</a>
</g>
</g>
<!-- Node1&#45;&gt;Node3 -->
<g id="edge2" class="edge">
<title>Node1&#45;&gt;Node3</title>
<path fill="none" stroke="black" d="M77.76,-86.67C92.98,-79.45 111.85,-71 129.25,-64.62 137.07,-61.76 145.58,-59.06 153.74,-56.67"/>
<polygon fill="black" stroke="black" points="76.26,-83.51 68.77,-91 79.3,-89.82 76.26,-83.51"/>
</g>
<!-- Node7 -->
<g id="Node000007" class="node">
<title>Node7</title>
<g id="a_Node000007"><a xlink:href="group__qtypes.html" target="_top" xlink:title="Sets of types having specified widths used to design the entire OS. It also define macros directives ...">
<polygon fill="white" stroke="#666666" points="240.88,-19.25 146.12,-19.25 146.12,0 240.88,0 240.88,-19.25"/>
<text text-anchor="middle" x="193.5" y="-5.75" font-family="Helvetica,sans-Serif" font-size="10.00">Types and macros</text>
</a>
</g>
</g>
<!-- Node1&#45;&gt;Node7 -->
<g id="edge6" class="edge">
<title>Node1&#45;&gt;Node7</title>
<path fill="none" stroke="black" d="M63.29,-83.23C78.53,-66.45 103.15,-42.12 129.25,-27.62 134.84,-24.52 141.01,-21.91 147.24,-19.74"/>
<polygon fill="black" stroke="black" points="60.84,-80.72 56.84,-90.54 66.08,-85.36 60.84,-80.72"/>
</g>
</g>
</svg>
