<?xml version="1.0" encoding="UTF-8" standalone="no"?>
<!DOCTYPE svg PUBLIC "-//W3C//DTD SVG 1.1//EN"
 "http://www.w3.org/Graphics/SVG/1.1/DTD/svg11.dtd">
<!-- Generated by graphviz version 7.1.0 (20230121.1956)
 -->
<!-- Title: Operative System Pages: 1 -->
<svg width="267pt" height="212pt"
 viewBox="0.00 0.00 267.00 212.00" xmlns="http://www.w3.org/2000/svg" xmlns:xlink="http://www.w3.org/1999/xlink">
<g id="graph0" class="graph" transform="scale(1 1) rotate(0) translate(4 208)">
<title>Operative System</title>
<!-- Node5 -->
<g id="node1" class="node">
<title>Node5</title>
<g id="a_node1"><a xlink:href="group__qclock.html" target="_top" xlink:title="Clock and time manipulation interface used by the entire OS.">
<polygon fill="white" stroke="#666666" points="215,-204 174,-204 174,-185 215,-185 215,-204"/>
<text text-anchor="middle" x="194.5" y="-192" font-family="Helvetica,sans-Serif" font-size="10.00">Clock</text>
</a>
</g>
</g>
<!-- Node6 -->
<g id="node2" class="node">
<title>Node6</title>
<g id="a_node2"><a xlink:href="group__qcritical.html" target="_top" xlink:title="APIs to handle entry/exit actions in Critical sections.">
<polygon fill="white" stroke="#666666" points="218,-167 171,-167 171,-148 218,-148 218,-167"/>
<text text-anchor="middle" x="194.5" y="-155" font-family="Helvetica,sans-Serif" font-size="10.00">Critical</text>
</a>
</g>
</g>
<!-- Node1 -->
<g id="node3" class="node">
<title>Node1</title>
<g id="a_node3"><a xlink:title=" ">
<polygon fill="#999999" stroke="#666666" points="94,-111 0,-111 0,-92 94,-92 94,-111"/>
<text text-anchor="middle" x="47" y="-99" font-family="Helvetica,sans-Serif" font-size="10.00">Operative System</text>
</a>
</g>
</g>
<!-- Node1&#45;&gt;Node5 -->
<g id="edge4" class="edge">
<title>Node1&#45;&gt;Node5</title>
<path fill="none" stroke="black" d="M63.45,-119.88C78.72,-136.9 103.55,-161.76 130,-176.5 143.61,-184.09 160.68,-188.69 173.7,-191.34"/>
<polygon fill="black" stroke="black" points="66.21,-117.72 57,-112.48 60.94,-122.32 66.21,-117.72"/>
</g>
<!-- Node1&#45;&gt;Node6 -->
<g id="edge5" class="edge">
<title>Node1&#45;&gt;Node6</title>
<path fill="none" stroke="black" d="M77.18,-116.39C92.63,-123.92 112.07,-132.85 130,-139.5 143.21,-144.4 158.39,-148.75 170.59,-151.94"/>
<polygon fill="black" stroke="black" points="79.05,-113.41 68.54,-112.11 75.95,-119.69 79.05,-113.41"/>
</g>
<!-- Node4 -->
<g id="node4" class="node">
<title>Node4</title>
<g id="a_node4"><a xlink:href="group__qpriv.html" target="_top" xlink:title="Inter&#45;Task communication primitives : Queues, Notifications and Event&#45;flags.">
<polygon fill="white" stroke="#666666" points="259,-130 130,-130 130,-111 259,-111 259,-130"/>
<text text-anchor="middle" x="194.5" y="-118" font-family="Helvetica,sans-Serif" font-size="10.00">Inter&#45;Task communication</text>
</a>
</g>
</g>
<!-- Node1&#45;&gt;Node4 -->
<g id="edge3" class="edge">
<title>Node1&#45;&gt;Node4</title>
<path fill="none" stroke="black" d="M105.76,-109.04C113.63,-110.07 121.75,-111.13 129.73,-112.17"/>
<polygon fill="black" stroke="black" points="106.31,-105.58 95.94,-107.76 105.4,-112.53 106.31,-105.58"/>
</g>
<!-- Node2 -->
<g id="node5" class="node">
<title>Node2</title>
<g id="a_node5"><a xlink:href="group__qtaskcreation.html" target="_top" xlink:title="Kernel API interface to create/remove tasks and perform special OS operations.">
<polygon fill="white" stroke="#666666" points="245,-93 144,-93 144,-74 245,-74 245,-93"/>
<text text-anchor="middle" x="194.5" y="-81" font-family="Helvetica,sans-Serif" font-size="10.00">Scheduler Interface</text>
</a>
</g>
</g>
<!-- Node1&#45;&gt;Node2 -->
<g id="edge1" class="edge">
<title>Node1&#45;&gt;Node2</title>
<path fill="none" stroke="black" d="M105.76,-94.35C118.32,-92.8 131.51,-91.17 143.73,-89.66"/>
<polygon fill="black" stroke="black" points="105.43,-90.87 95.94,-95.57 106.29,-97.82 105.43,-90.87"/>
</g>
<!-- Node3 -->
<g id="node6" class="node">
<title>Node3</title>
<g id="a_node6"><a xlink:href="group__qtaskmanip.html" target="_top" xlink:title="API interface to manage tasks.">
<polygon fill="white" stroke="#666666" points="237,-56 152,-56 152,-37 237,-37 237,-56"/>
<text text-anchor="middle" x="194.5" y="-44" font-family="Helvetica,sans-Serif" font-size="10.00">Managing tasks</text>
</a>
</g>
</g>
<!-- Node1&#45;&gt;Node3 -->
<g id="edge2" class="edge">
<title>Node1&#45;&gt;Node3</title>
<path fill="none" stroke="black" d="M78.98,-86.82C94.18,-79.9 112.86,-71.8 130,-65.5 138.75,-62.28 148.32,-59.2 157.31,-56.49"/>
<polygon fill="black" stroke="black" points="77.59,-83.61 69.98,-90.98 80.53,-89.96 77.59,-83.61"/>
</g>
<!-- Node7 -->
<g id="node7" class="node">
<title>Node7</title>
<g id="a_node7"><a xlink:href="group__qtypes.html" target="_top" xlink:title="Sets of types having specified widths used to design the entire OS. It also define macros directives ...">
<polygon fill="white" stroke="#666666" points="242,-19 147,-19 147,0 242,0 242,-19"/>
<text text-anchor="middle" x="194.5" y="-7" font-family="Helvetica,sans-Serif" font-size="10.00">Types and macros</text>
</a>
</g>
</g>
<!-- Node1&#45;&gt;Node7 -->
<g id="edge6" class="edge">
<title>Node1&#45;&gt;Node7</title>
<path fill="none" stroke="black" d="M63.6,-83.72C78.97,-67.22 103.88,-43.08 130,-28.5 136.43,-24.91 143.61,-21.93 150.77,-19.47"/>
<polygon fill="black" stroke="black" points="61.24,-81.11 57.11,-90.87 66.42,-85.81 61.24,-81.11"/>
</g>
</g>
</svg>
