<?xml version="1.0" encoding="UTF-8" standalone="no"?>
<!DOCTYPE svg PUBLIC "-//W3C//DTD SVG 1.1//EN"
 "http://www.w3.org/Graphics/SVG/1.1/DTD/svg11.dtd">
<!-- Generated by graphviz version 2.49.3 (20211027.1534)
 -->
<!-- Title: Kernel extensions Pages: 1 -->
<svg width="274pt" height="175pt"
 viewBox="0.00 0.00 274.00 175.00" xmlns="http://www.w3.org/2000/svg" xmlns:xlink="http://www.w3.org/1999/xlink">
<g id="graph0" class="graph" transform="scale(1 1) rotate(0) translate(4 171)">
<title>Kernel extensions</title>
<polygon fill="white" stroke="transparent" points="-4,4 -4,-171 270,-171 270,4 -4,4"/>
<!-- Node5 -->
<g id="node1" class="node">
<title>Node5</title>
<g id="a_node1"><a xlink:href="group__qatcli.html" target="_top" xlink:title="API for the AT Command Line Interface extension.">
<polygon fill="white" stroke="black" points="266,-167 129,-167 129,-148 266,-148 266,-167"/>
<text text-anchor="middle" x="197.5" y="-155" font-family="Helvetica,sans-Serif" font-size="10.00">AT Command Line Interface</text>
</a>
</g>
</g>
<!-- Node4 -->
<g id="node2" class="node">
<title>Node4</title>
<g id="a_node2"><a xlink:href="group__qcoroutines.html" target="_top" xlink:title="API interface for the Co&#45;Routines extension.">
<polygon fill="white" stroke="black" points="232.5,-130 162.5,-130 162.5,-111 232.5,-111 232.5,-130"/>
<text text-anchor="middle" x="197.5" y="-118" font-family="Helvetica,sans-Serif" font-size="10.00">Co&#45;Routines</text>
</a>
</g>
</g>
<!-- Node2 -->
<g id="node3" class="node">
<title>Node2</title>
<g id="a_node3"><a xlink:href="group__qfsm.html" target="_top" xlink:title="API interface of the Finite State Machines (FSM) extension.">
<polygon fill="white" stroke="black" points="252.5,-93 142.5,-93 142.5,-74 252.5,-74 252.5,-93"/>
<text text-anchor="middle" x="197.5" y="-81" font-family="Helvetica,sans-Serif" font-size="10.00">Finite State Machines</text>
</a>
</g>
</g>
<!-- Node6 -->
<g id="node4" class="node">
<title>Node6</title>
<g id="a_node4"><a xlink:href="group__qmemmang.html" target="_top" xlink:title="API interface for the Memory Management extension.">
<polygon fill="white" stroke="black" points="252.5,-56 142.5,-56 142.5,-37 252.5,-37 252.5,-56"/>
<text text-anchor="middle" x="197.5" y="-44" font-family="Helvetica,sans-Serif" font-size="10.00">Memory Management</text>
</a>
</g>
</g>
<!-- Node1 -->
<g id="node5" class="node">
<title>Node1</title>
<g id="a_node5"><a xlink:title=" ">
<polygon fill="#bfbfbf" stroke="black" points="93,-93 0,-93 0,-74 93,-74 93,-93"/>
<text text-anchor="middle" x="46.5" y="-81" font-family="Helvetica,sans-Serif" font-size="10.00">Kernel extensions</text>
</a>
</g>
</g>
<!-- Node1&#45;&gt;Node5 -->
<g id="edge4" class="edge">
<title>Node1&#45;&gt;Node5</title>
<path fill="none" stroke="black" d="M66.84,-99.62C82.66,-112.09 106.1,-128.96 129,-139.5 136.16,-142.8 144.04,-145.58 151.8,-147.9"/>
<polygon fill="black" stroke="black" points="68.86,-96.76 58.88,-93.21 64.47,-102.21 68.86,-96.76"/>
</g>
<!-- Node1&#45;&gt;Node4 -->
<g id="edge3" class="edge">
<title>Node1&#45;&gt;Node4</title>
<path fill="none" stroke="black" d="M95.59,-95.44C117.34,-100.84 142.55,-107.1 162.33,-112.01"/>
<polygon fill="black" stroke="black" points="96.42,-92.04 85.87,-93.03 94.73,-98.84 96.42,-92.04"/>
</g>
<!-- Node1&#45;&gt;Node2 -->
<g id="edge1" class="edge">
<title>Node1&#45;&gt;Node2</title>
<path fill="none" stroke="black" d="M103.11,-83.5C115.94,-83.5 129.58,-83.5 142.36,-83.5"/>
<polygon fill="black" stroke="black" points="103.01,-80 93.01,-83.5 103.01,-87 103.01,-80"/>
</g>
<!-- Node1&#45;&gt;Node6 -->
<g id="edge5" class="edge">
<title>Node1&#45;&gt;Node6</title>
<path fill="none" stroke="black" d="M95.8,-71.51C115.95,-66.5 139.02,-60.77 158,-56.06"/>
<polygon fill="black" stroke="black" points="94.73,-68.16 85.87,-73.97 96.42,-74.96 94.73,-68.16"/>
</g>
<!-- Node3 -->
<g id="node6" class="node">
<title>Node3</title>
<g id="a_node6"><a xlink:href="group__qstimers.html" target="_top" xlink:title="API interface for the STimers extension.">
<polygon fill="white" stroke="black" points="242,-19 153,-19 153,0 242,0 242,-19"/>
<text text-anchor="middle" x="197.5" y="-7" font-family="Helvetica,sans-Serif" font-size="10.00">Software&#45;Timers</text>
</a>
</g>
</g>
<!-- Node1&#45;&gt;Node3 -->
<g id="edge2" class="edge">
<title>Node1&#45;&gt;Node3</title>
<path fill="none" stroke="black" d="M67.2,-67.56C83.07,-55.39 106.39,-38.98 129,-28.5 137.06,-24.76 146.02,-21.61 154.7,-19.02"/>
<polygon fill="black" stroke="black" points="64.91,-64.9 59.2,-73.82 69.23,-70.41 64.91,-64.9"/>
</g>
</g>
</svg>
