<?xml version="1.0" encoding="UTF-8" standalone="no"?>
<!DOCTYPE svg PUBLIC "-//W3C//DTD SVG 1.1//EN"
 "http://www.w3.org/Graphics/SVG/1.1/DTD/svg11.dtd">
<!-- Generated by graphviz version 12.1.2 (20240928.0832)
 -->
<!-- Title: Kernel extensions Pages: 1 -->
<svg width="273pt" height="175pt"
 viewBox="0.00 0.00 273.25 175.25" xmlns="http://www.w3.org/2000/svg" xmlns:xlink="http://www.w3.org/1999/xlink">
<g id="graph0" class="graph" transform="scale(1 1) rotate(0) translate(4 171.25)">
<title>Kernel extensions</title>
<!-- Node5 -->
<g id="Node000005" class="node">
<title>Node5</title>
<g id="a_Node000005"><a xlink:href="group__qatcli.html" target="_top" xlink:title="API for the AT Command Line Interface extension.">
<polygon fill="white" stroke="#666666" points="265.25,-167.25 128.5,-167.25 128.5,-148 265.25,-148 265.25,-167.25"/>
<text text-anchor="middle" x="196.88" y="-153.75" font-family="Helvetica,sans-Serif" font-size="10.00">AT Command Line Interface</text>
</a>
</g>
</g>
<!-- Node4 -->
<g id="Node000004" class="node">
<title>Node4</title>
<g id="a_Node000004"><a xlink:href="group__qcoroutines.html" target="_top" xlink:title="API interface for the Co&#45;Routines extension.">
<polygon fill="white" stroke="#666666" points="231.5,-130.25 162.25,-130.25 162.25,-111 231.5,-111 231.5,-130.25"/>
<text text-anchor="middle" x="196.88" y="-116.75" font-family="Helvetica,sans-Serif" font-size="10.00">Co&#45;Routines</text>
</a>
</g>
</g>
<!-- Node2 -->
<g id="Node000002" class="node">
<title>Node2</title>
<g id="a_Node000002"><a xlink:href="group__qfsm.html" target="_top" xlink:title="API interface of the Finite State Machines (FSM) extension.">
<polygon fill="white" stroke="#666666" points="251.75,-93.25 142,-93.25 142,-74 251.75,-74 251.75,-93.25"/>
<text text-anchor="middle" x="196.88" y="-79.75" font-family="Helvetica,sans-Serif" font-size="10.00">Finite State Machines</text>
</a>
</g>
</g>
<!-- Node6 -->
<g id="Node000006" class="node">
<title>Node6</title>
<g id="a_Node000006"><a xlink:href="group__qmemmang.html" target="_top" xlink:title=" ">
<polygon fill="white" stroke="#666666" points="251.38,-56.25 142.38,-56.25 142.38,-37 251.38,-37 251.38,-56.25"/>
<text text-anchor="middle" x="196.88" y="-42.75" font-family="Helvetica,sans-Serif" font-size="10.00">Memory Management</text>
</a>
</g>
</g>
<!-- Node1 -->
<g id="Node000001" class="node">
<title>Node1</title>
<g id="a_Node000001"><a xlink:title=" ">
<polygon fill="#999999" stroke="#666666" points="92.5,-93.25 0,-93.25 0,-74 92.5,-74 92.5,-93.25"/>
<text text-anchor="middle" x="46.25" y="-79.75" font-family="Helvetica,sans-Serif" font-size="10.00">Kernel extensions</text>
</a>
</g>
</g>
<!-- Node1&#45;&gt;Node5 -->
<g id="edge4" class="edge">
<title>Node1&#45;&gt;Node5</title>
<path fill="none" stroke="black" d="M67.68,-100.66C83.43,-113.03 106.21,-129.34 128.5,-139.62 135.21,-142.72 142.54,-145.36 149.83,-147.59"/>
<polygon fill="black" stroke="black" points="70.01,-98.04 60.03,-94.5 65.62,-103.5 70.01,-98.04"/>
</g>
<!-- Node1&#45;&gt;Node4 -->
<g id="edge3" class="edge">
<title>Node1&#45;&gt;Node4</title>
<path fill="none" stroke="black" d="M98.81,-96.46C119.68,-101.66 143.19,-107.51 161.85,-112.15"/>
<polygon fill="black" stroke="black" points="99.88,-93.12 89.33,-94.1 98.19,-99.91 99.88,-93.12"/>
</g>
<!-- Node1&#45;&gt;Node2 -->
<g id="edge1" class="edge">
<title>Node1&#45;&gt;Node2</title>
<path fill="none" stroke="black" d="M103.8,-83.62C116.2,-83.62 129.3,-83.62 141.6,-83.62"/>
<polygon fill="black" stroke="black" points="104.16,-80.13 94.16,-83.63 104.16,-87.13 104.16,-80.13"/>
</g>
<!-- Node1&#45;&gt;Node6 -->
<g id="edge5" class="edge">
<title>Node1&#45;&gt;Node6</title>
<path fill="none" stroke="black" d="M99.03,-70.73C117.47,-66.14 137.95,-61.05 155.31,-56.72"/>
<polygon fill="black" stroke="black" points="98.19,-67.34 89.33,-73.15 99.88,-74.13 98.19,-67.34"/>
</g>
<!-- Node3 -->
<g id="Node000003" class="node">
<title>Node3</title>
<g id="a_Node000003"><a xlink:href="group__qstimers.html" target="_top" xlink:title="API interface for the STimers extension.">
<polygon fill="white" stroke="#666666" points="240.88,-19.25 152.88,-19.25 152.88,0 240.88,0 240.88,-19.25"/>
<text text-anchor="middle" x="196.88" y="-5.75" font-family="Helvetica,sans-Serif" font-size="10.00">Software&#45;Timers</text>
</a>
</g>
</g>
<!-- Node1&#45;&gt;Node3 -->
<g id="edge2" class="edge">
<title>Node1&#45;&gt;Node3</title>
<path fill="none" stroke="black" d="M67.68,-66.59C83.43,-54.22 106.21,-37.91 128.5,-27.62 136.09,-24.13 144.48,-21.2 152.69,-18.8"/>
<polygon fill="black" stroke="black" points="65.62,-63.75 60.03,-72.75 70.01,-69.21 65.62,-63.75"/>
</g>
</g>
</svg>
