<?xml version="1.0" encoding="UTF-8" standalone="no"?>
<!DOCTYPE svg PUBLIC "-//W3C//DTD SVG 1.1//EN"
 "http://www.w3.org/Graphics/SVG/1.1/DTD/svg11.dtd">
<!-- Generated by graphviz version 2.49.3 (20211027.1534)
 -->
<!-- Title: Utilities Pages: 1 -->
<svg width="216pt" height="273pt"
 viewBox="0.00 0.00 216.00 273.00" xmlns="http://www.w3.org/2000/svg" xmlns:xlink="http://www.w3.org/1999/xlink">
<g id="graph0" class="graph" transform="scale(1 1) rotate(0) translate(4 269)">
<title>Utilities</title>
<polygon fill="white" stroke="transparent" points="-4,4 -4,-269 212,-269 212,4 -4,4"/>
<!-- Node3 -->
<g id="node1" class="node">
<title>Node3</title>
<g id="a_node1"><a xlink:href="group__qbsbuffers.html" target="_top" xlink:title="An interrupt&#45;safe byte&#45;sized ring buffer interface.">
<polygon fill="white" stroke="black" points="194.5,-265 99.5,-265 99.5,-246 194.5,-246 194.5,-265"/>
<text text-anchor="middle" x="147" y="-253" font-family="Helvetica,sans-Serif" font-size="10.00">Byte&#45;Sized buffers</text>
</a>
</g>
</g>
<!-- Node4 -->
<g id="node2" class="node">
<title>Node4</title>
<g id="a_node2"><a xlink:href="group__qedgecheck.html" target="_top" xlink:title="An interface to manage and simplify the value(with edge&#45;checking) of incoming digital&#45;signal groups.">
<polygon fill="white" stroke="black" points="197.5,-227.5 96.5,-227.5 96.5,-197.5 197.5,-197.5 197.5,-227.5"/>
<text text-anchor="start" x="104.5" y="-215.5" font-family="Helvetica,sans-Serif" font-size="10.00">I/O Groups for edge</text>
<text text-anchor="middle" x="147" y="-204.5" font-family="Helvetica,sans-Serif" font-size="10.00"> checking</text>
</a>
</g>
</g>
<!-- Node8 -->
<g id="node3" class="node">
<title>Node8</title>
<g id="a_node3"><a xlink:href="group__qflm.html" target="_top" xlink:title="General purpose Function&#45;like Macros.">
<polygon fill="white" stroke="black" points="208,-179 86,-179 86,-160 208,-160 208,-179"/>
<text text-anchor="middle" x="147" y="-167" font-family="Helvetica,sans-Serif" font-size="10.00">General purpose macros</text>
</a>
</g>
</g>
<!-- Node5 -->
<g id="node4" class="node">
<title>Node5</title>
<g id="a_node4"><a xlink:href="group__qioutils.html" target="_top" xlink:title="API for input/output utilities and safe string interfaces.">
<polygon fill="white" stroke="black" points="173.5,-142 120.5,-142 120.5,-123 173.5,-123 173.5,-142"/>
<text text-anchor="middle" x="147" y="-130" font-family="Helvetica,sans-Serif" font-size="10.00">I/O Utils</text>
</a>
</g>
</g>
<!-- Node2 -->
<g id="node5" class="node">
<title>Node2</title>
<g id="a_node5"><a xlink:href="group__qlists.html" target="_top" xlink:title="The provided list implementation uses a generic doubly&#45;linked approach in which each node,...">
<polygon fill="white" stroke="black" points="202,-104.5 92,-104.5 92,-74.5 202,-74.5 202,-104.5"/>
<text text-anchor="start" x="100" y="-92.5" font-family="Helvetica,sans-Serif" font-size="10.00">Generic double&#45;linked</text>
<text text-anchor="middle" x="147" y="-81.5" font-family="Helvetica,sans-Serif" font-size="10.00"> lists</text>
</a>
</g>
</g>
<!-- Node6 -->
<g id="node6" class="node">
<title>Node6</title>
<g id="a_node6"><a xlink:href="group__qresponse.html" target="_top" xlink:title="API to simplify the handling of requested responses from terminal interfaces.">
<polygon fill="white" stroke="black" points="194,-56 100,-56 100,-37 194,-37 194,-56"/>
<text text-anchor="middle" x="147" y="-44" font-family="Helvetica,sans-Serif" font-size="10.00">Response handler</text>
</a>
</g>
</g>
<!-- Node7 -->
<g id="node7" class="node">
<title>Node7</title>
<g id="a_node7"><a xlink:href="group__qtrace.html" target="_top" xlink:title="API interfaces to print out trace and debug messages.">
<polygon fill="white" stroke="black" points="167.5,-19 126.5,-19 126.5,0 167.5,0 167.5,-19"/>
<text text-anchor="middle" x="147" y="-7" font-family="Helvetica,sans-Serif" font-size="10.00">Trace</text>
</a>
</g>
</g>
<!-- Node1 -->
<g id="node8" class="node">
<title>Node1</title>
<g id="a_node8"><a xlink:title=" ">
<polygon fill="#bfbfbf" stroke="black" points="50,-142 0,-142 0,-123 50,-123 50,-142"/>
<text text-anchor="middle" x="25" y="-130" font-family="Helvetica,sans-Serif" font-size="10.00">Utilities</text>
</a>
</g>
</g>
<!-- Node1&#45;&gt;Node3 -->
<g id="edge2" class="edge">
<title>Node1&#45;&gt;Node3</title>
<path fill="none" stroke="black" d="M32.16,-151.61C40.64,-174.95 58.1,-214.08 86,-236.5 90.85,-240.4 96.52,-243.51 102.4,-245.98"/>
<polygon fill="black" stroke="black" points="35.45,-150.43 28.89,-142.11 28.84,-152.71 35.45,-150.43"/>
</g>
<!-- Node1&#45;&gt;Node4 -->
<g id="edge3" class="edge">
<title>Node1&#45;&gt;Node4</title>
<path fill="none" stroke="black" d="M41.48,-150.05C52.85,-162.12 69.19,-177.83 86,-188.5 91.21,-191.81 96.95,-194.8 102.75,-197.46"/>
<polygon fill="black" stroke="black" points="43.79,-147.4 34.46,-142.39 38.63,-152.13 43.79,-147.4"/>
</g>
<!-- Node1&#45;&gt;Node8 -->
<g id="edge7" class="edge">
<title>Node1&#45;&gt;Node8</title>
<path fill="none" stroke="black" d="M59.86,-143.32C68.38,-146.02 77.52,-148.89 86,-151.5 95.04,-154.29 104.87,-157.26 113.9,-159.97"/>
<polygon fill="black" stroke="black" points="60.79,-139.95 50.2,-140.26 58.68,-146.62 60.79,-139.95"/>
</g>
<!-- Node1&#45;&gt;Node5 -->
<g id="edge4" class="edge">
<title>Node1&#45;&gt;Node5</title>
<path fill="none" stroke="black" d="M60.35,-132.5C79.36,-132.5 102.62,-132.5 120.09,-132.5"/>
<polygon fill="black" stroke="black" points="60.28,-129 50.28,-132.5 60.28,-136 60.28,-129"/>
</g>
<!-- Node1&#45;&gt;Node2 -->
<g id="edge1" class="edge">
<title>Node1&#45;&gt;Node2</title>
<path fill="none" stroke="black" d="M59.78,-120.4C73.44,-115.5 89.36,-109.8 103.78,-104.63"/>
<polygon fill="black" stroke="black" points="58.52,-117.13 50.28,-123.8 60.88,-123.72 58.52,-117.13"/>
</g>
<!-- Node1&#45;&gt;Node6 -->
<g id="edge5" class="edge">
<title>Node1&#45;&gt;Node6</title>
<path fill="none" stroke="black" d="M38.07,-114.3C48.94,-99.23 66.23,-78.27 86,-65.5 91.97,-61.65 98.77,-58.52 105.6,-56.01"/>
<polygon fill="black" stroke="black" points="34.99,-112.6 32.16,-122.81 40.74,-116.59 34.99,-112.6"/>
</g>
<!-- Node1&#45;&gt;Node7 -->
<g id="edge6" class="edge">
<title>Node1&#45;&gt;Node7</title>
<path fill="none" stroke="black" d="M32.16,-113.39C40.64,-90.05 58.1,-50.92 86,-28.5 97.58,-19.19 113.79,-14.41 126.44,-11.97"/>
<polygon fill="black" stroke="black" points="28.84,-112.29 28.89,-122.89 35.45,-114.57 28.84,-112.29"/>
</g>
</g>
</svg>
