<?xml version="1.0" encoding="UTF-8" standalone="no"?>
<!DOCTYPE svg PUBLIC "-//W3C//DTD SVG 1.1//EN"
 "http://www.w3.org/Graphics/SVG/1.1/DTD/svg11.dtd">
<!-- Generated by graphviz version 7.1.0 (20230121.1956)
 -->
<!-- Title: Kernel extensions Pages: 1 -->
<svg width="274pt" height="175pt"
 viewBox="0.00 0.00 274.00 175.00" xmlns="http://www.w3.org/2000/svg" xmlns:xlink="http://www.w3.org/1999/xlink">
<g id="graph0" class="graph" transform="scale(1 1) rotate(0) translate(4 171)">
<title>Kernel extensions</title>
<!-- Node5 -->
<g id="node1" class="node">
<title>Node5</title>
<g id="a_node1"><a xlink:href="group__qatcli.html" target="_top" xlink:title="API for the AT Command Line Interface extension.">
<polygon fill="white" stroke="#666666" points="266,-167 129,-167 129,-148 266,-148 266,-167"/>
<text text-anchor="middle" x="197.5" y="-155" font-family="Helvetica,sans-Serif" font-size="10.00">AT Command Line Interface</text>
</a>
</g>
</g>
<!-- Node4 -->
<g id="node2" class="node">
<title>Node4</title>
<g id="a_node2"><a xlink:href="group__qcoroutines.html" target="_top" xlink:title="API interface for the Co&#45;Routines extension.">
<polygon fill="white" stroke="#666666" points="232.5,-130 162.5,-130 162.5,-111 232.5,-111 232.5,-130"/>
<text text-anchor="middle" x="197.5" y="-118" font-family="Helvetica,sans-Serif" font-size="10.00">Co&#45;Routines</text>
</a>
</g>
</g>
<!-- Node2 -->
<g id="node3" class="node">
<title>Node2</title>
<g id="a_node3"><a xlink:href="group__qfsm.html" target="_top" xlink:title="API interface of the Finite State Machines (FSM) extension.">
<polygon fill="white" stroke="#666666" points="252.5,-93 142.5,-93 142.5,-74 252.5,-74 252.5,-93"/>
<text text-anchor="middle" x="197.5" y="-81" font-family="Helvetica,sans-Serif" font-size="10.00">Finite State Machines</text>
</a>
</g>
</g>
<!-- Node6 -->
<g id="node4" class="node">
<title>Node6</title>
<g id="a_node4"><a xlink:href="group__qmemmang.html" target="_top" xlink:title=" ">
<polygon fill="white" stroke="#666666" points="252.5,-56 142.5,-56 142.5,-37 252.5,-37 252.5,-56"/>
<text text-anchor="middle" x="197.5" y="-44" font-family="Helvetica,sans-Serif" font-size="10.00">Memory Management</text>
</a>
</g>
</g>
<!-- Node1 -->
<g id="node5" class="node">
<title>Node1</title>
<g id="a_node5"><a xlink:title=" ">
<polygon fill="#999999" stroke="#666666" points="93,-93 0,-93 0,-74 93,-74 93,-93"/>
<text text-anchor="middle" x="46.5" y="-81" font-family="Helvetica,sans-Serif" font-size="10.00">Kernel extensions</text>
</a>
</g>
</g>
<!-- Node1&#45;&gt;Node5 -->
<g id="edge4" class="edge">
<title>Node1&#45;&gt;Node5</title>
<path fill="none" stroke="black" d="M68,-100.53C83.8,-112.91 106.66,-129.22 129,-139.5 135.83,-142.64 143.31,-145.32 150.73,-147.57"/>
<polygon fill="black" stroke="black" points="70.31,-97.9 60.32,-94.37 65.93,-103.36 70.31,-97.9"/>
</g>
<!-- Node1&#45;&gt;Node4 -->
<g id="edge3" class="edge">
<title>Node1&#45;&gt;Node4</title>
<path fill="none" stroke="black" d="M98.42,-96.15C119.4,-101.35 143.16,-107.25 162.03,-111.94"/>
<polygon fill="black" stroke="black" points="99.45,-92.79 88.9,-93.78 97.76,-99.59 99.45,-92.79"/>
</g>
<!-- Node1&#45;&gt;Node2 -->
<g id="edge1" class="edge">
<title>Node1&#45;&gt;Node2</title>
<path fill="none" stroke="black" d="M104.89,-83.5C117.12,-83.5 129.99,-83.5 142.1,-83.5"/>
<polygon fill="black" stroke="black" points="104.93,-80 94.93,-83.5 104.93,-87 104.93,-80"/>
</g>
<!-- Node1&#45;&gt;Node6 -->
<g id="edge5" class="edge">
<title>Node1&#45;&gt;Node6</title>
<path fill="none" stroke="black" d="M98.57,-70.82C117.49,-66.12 138.66,-60.86 156.46,-56.44"/>
<polygon fill="black" stroke="black" points="97.76,-67.41 88.9,-73.22 99.45,-74.21 97.76,-67.41"/>
</g>
<!-- Node3 -->
<g id="node6" class="node">
<title>Node3</title>
<g id="a_node6"><a xlink:href="group__qstimers.html" target="_top" xlink:title="API interface for the STimers extension.">
<polygon fill="white" stroke="#666666" points="242,-19 153,-19 153,0 242,0 242,-19"/>
<text text-anchor="middle" x="197.5" y="-7" font-family="Helvetica,sans-Serif" font-size="10.00">Software&#45;Timers</text>
</a>
</g>
</g>
<!-- Node1&#45;&gt;Node3 -->
<g id="edge2" class="edge">
<title>Node1&#45;&gt;Node3</title>
<path fill="none" stroke="black" d="M68.36,-66.67C84.2,-54.6 106.94,-38.72 129,-28.5 136.62,-24.97 145.04,-21.96 153.27,-19.45"/>
<polygon fill="black" stroke="black" points="66.39,-63.77 60.66,-72.68 70.69,-69.29 66.39,-63.77"/>
</g>
</g>
</svg>
