<?xml version="1.0" encoding="UTF-8" standalone="no"?>
<!DOCTYPE svg PUBLIC "-//W3C//DTD SVG 1.1//EN"
 "http://www.w3.org/Graphics/SVG/1.1/DTD/svg11.dtd">
<!-- Generated by graphviz version 12.1.2 (20240928.0832)
 -->
<!-- Title: Inter&#45;Task communication Pages: 1 -->
<svg width="372pt" height="101pt"
 viewBox="0.00 0.00 371.75 101.25" xmlns="http://www.w3.org/2000/svg" xmlns:xlink="http://www.w3.org/1999/xlink">
<g id="graph0" class="graph" transform="scale(1 1) rotate(0) translate(4 97.25)">
<title>Inter&#45;Task communication</title>
<!-- Node5 -->
<g id="Node000005" class="node">
<title>Node5</title>
<g id="a_Node000005"><a xlink:href="group__qeventflags.html" target="_top" xlink:title="API interface for the built&#45;in&#45;task Event Flags.">
<polygon fill="white" stroke="#666666" points="362.25,-93.25 295.25,-93.25 295.25,-74 362.25,-74 362.25,-93.25"/>
<text text-anchor="middle" x="328.75" y="-79.75" font-family="Helvetica,sans-Serif" font-size="10.00">Event Flags</text>
</a>
</g>
</g>
<!-- Node4 -->
<g id="Node000004" class="node">
<title>Node4</title>
<g id="a_Node000004"><a xlink:href="group__qnot.html" target="_top" xlink:title="API interface for task Notifications.">
<polygon fill="white" stroke="#666666" points="363.75,-56.25 293.75,-56.25 293.75,-37 363.75,-37 363.75,-56.25"/>
<text text-anchor="middle" x="328.75" y="-42.75" font-family="Helvetica,sans-Serif" font-size="10.00">Notifications</text>
</a>
</g>
</g>
<!-- Node2 -->
<g id="Node000002" class="node">
<title>Node2</title>
<g id="a_Node000002"><a xlink:href="group__qos.html" target="_top" xlink:title=" ">
<polygon fill="white" stroke="#666666" points="93.25,-56.25 0,-56.25 0,-37 93.25,-37 93.25,-56.25"/>
<text text-anchor="middle" x="46.62" y="-42.75" font-family="Helvetica,sans-Serif" font-size="10.00">Operative System</text>
</a>
</g>
</g>
<!-- Node1 -->
<g id="Node000001" class="node">
<title>Node1</title>
<g id="a_Node000001"><a xlink:title="Inter&#45;Task communication primitives : Queues, Notifications and Event&#45;flags.">
<polygon fill="#999999" stroke="#666666" points="257.75,-56.25 129.25,-56.25 129.25,-37 257.75,-37 257.75,-56.25"/>
<text text-anchor="middle" x="193.5" y="-42.75" font-family="Helvetica,sans-Serif" font-size="10.00">Inter&#45;Task communication</text>
</a>
</g>
</g>
<!-- Node2&#45;&gt;Node1 -->
<g id="edge1" class="edge">
<title>Node2&#45;&gt;Node1</title>
<path fill="none" stroke="black" d="M104.84,-46.62C112.76,-46.62 120.93,-46.62 128.96,-46.62"/>
<polygon fill="black" stroke="black" points="104.98,-43.13 94.98,-46.63 104.98,-50.13 104.98,-43.13"/>
</g>
<!-- Node1&#45;&gt;Node5 -->
<g id="edge4" class="edge">
<title>Node1&#45;&gt;Node5</title>
<path fill="none" stroke="black" d="M241.85,-59.77C259.45,-64.66 279.02,-70.09 295.03,-74.54"/>
<polygon fill="black" stroke="black" points="242.94,-56.44 232.37,-57.14 241.07,-63.19 242.94,-56.44"/>
</g>
<!-- Node1&#45;&gt;Node4 -->
<g id="edge3" class="edge">
<title>Node1&#45;&gt;Node4</title>
<path fill="none" stroke="black" d="M269.43,-46.62C277.77,-46.62 285.93,-46.62 293.38,-46.62"/>
<polygon fill="black" stroke="black" points="269.52,-43.13 259.52,-46.63 269.52,-50.13 269.52,-43.13"/>
</g>
<!-- Node3 -->
<g id="Node000003" class="node">
<title>Node3</title>
<g id="a_Node000003"><a xlink:href="group__qqueues.html" target="_top" xlink:title="API interface to create and handle Queues.">
<polygon fill="white" stroke="#666666" points="353.62,-19.25 303.88,-19.25 303.88,0 353.62,0 353.62,-19.25"/>
<text text-anchor="middle" x="328.75" y="-5.75" font-family="Helvetica,sans-Serif" font-size="10.00">Queues</text>
</a>
</g>
</g>
<!-- Node1&#45;&gt;Node3 -->
<g id="edge2" class="edge">
<title>Node1&#45;&gt;Node3</title>
<path fill="none" stroke="black" d="M241.85,-33.48C262.74,-27.68 286.39,-21.11 303.58,-16.34"/>
<polygon fill="black" stroke="black" points="241.07,-30.06 232.37,-36.11 242.94,-36.81 241.07,-30.06"/>
</g>
</g>
</svg>
