<?xml version="1.0" encoding="UTF-8" standalone="no"?>
<!DOCTYPE svg PUBLIC "-//W3C//DTD SVG 1.1//EN"
 "http://www.w3.org/Graphics/SVG/1.1/DTD/svg11.dtd">
<!-- Generated by graphviz version 12.1.2 (20240928.0832)
 -->
<!-- Title: Utilities Pages: 1 -->
<svg width="214pt" height="273pt"
 viewBox="0.00 0.00 214.00 273.25" xmlns="http://www.w3.org/2000/svg" xmlns:xlink="http://www.w3.org/1999/xlink">
<g id="graph0" class="graph" transform="scale(1 1) rotate(0) translate(4 269.25)">
<title>Utilities</title>
<!-- Node3 -->
<g id="Node000003" class="node">
<title>Node3</title>
<g id="a_Node000003"><a xlink:href="group__qbsbuffers.html" target="_top" xlink:title="An interrupt&#45;safe byte&#45;sized ring buffer interface.">
<polygon fill="white" stroke="#666666" points="192.5,-265.25 98.5,-265.25 98.5,-246 192.5,-246 192.5,-265.25"/>
<text text-anchor="middle" x="145.5" y="-251.75" font-family="Helvetica,sans-Serif" font-size="10.00">Byte&#45;Sized buffers</text>
</a>
</g>
</g>
<!-- Node4 -->
<g id="Node000004" class="node">
<title>Node4</title>
<g id="a_Node000004"><a xlink:href="group__qedgecheck.html" target="_top" xlink:title="An interface to manage and simplify the value(with edge&#45;checking) of incoming digital&#45;signal groups.">
<polygon fill="white" stroke="#666666" points="195.5,-227.88 95.5,-227.88 95.5,-197.38 195.5,-197.38 195.5,-227.88"/>
<text text-anchor="start" x="103.5" y="-214.38" font-family="Helvetica,sans-Serif" font-size="10.00">I/O Groups for edge</text>
<text text-anchor="middle" x="145.5" y="-203.12" font-family="Helvetica,sans-Serif" font-size="10.00"> checking</text>
</a>
</g>
</g>
<!-- Node8 -->
<g id="Node000008" class="node">
<title>Node8</title>
<g id="a_Node000008"><a xlink:href="group__qflm.html" target="_top" xlink:title="General purpose Function&#45;like Macros.">
<polygon fill="white" stroke="#666666" points="206,-179.25 85,-179.25 85,-160 206,-160 206,-179.25"/>
<text text-anchor="middle" x="145.5" y="-165.75" font-family="Helvetica,sans-Serif" font-size="10.00">General purpose macros</text>
</a>
</g>
</g>
<!-- Node5 -->
<g id="Node000005" class="node">
<title>Node5</title>
<g id="a_Node000005"><a xlink:href="group__qioutils.html" target="_top" xlink:title="API for input/output utilities and safe string interfaces.">
<polygon fill="white" stroke="#666666" points="171.5,-142.25 119.5,-142.25 119.5,-123 171.5,-123 171.5,-142.25"/>
<text text-anchor="middle" x="145.5" y="-128.75" font-family="Helvetica,sans-Serif" font-size="10.00">I/O Utils</text>
</a>
</g>
</g>
<!-- Node2 -->
<g id="Node000002" class="node">
<title>Node2</title>
<g id="a_Node000002"><a xlink:href="group__qlists.html" target="_top" xlink:title="The provided list implementation uses a generic doubly&#45;linked approach in which each node,...">
<polygon fill="white" stroke="#666666" points="200,-104.88 91,-104.88 91,-74.38 200,-74.38 200,-104.88"/>
<text text-anchor="start" x="99" y="-91.38" font-family="Helvetica,sans-Serif" font-size="10.00">Generic double&#45;linked</text>
<text text-anchor="middle" x="145.5" y="-80.12" font-family="Helvetica,sans-Serif" font-size="10.00"> lists</text>
</a>
</g>
</g>
<!-- Node6 -->
<g id="Node000006" class="node">
<title>Node6</title>
<g id="a_Node000006"><a xlink:href="group__qresponse.html" target="_top" xlink:title="API to simplify the handling of requested responses from terminal interfaces.">
<polygon fill="white" stroke="#666666" points="192.12,-56.25 98.88,-56.25 98.88,-37 192.12,-37 192.12,-56.25"/>
<text text-anchor="middle" x="145.5" y="-42.75" font-family="Helvetica,sans-Serif" font-size="10.00">Response handler</text>
</a>
</g>
</g>
<!-- Node7 -->
<g id="Node000007" class="node">
<title>Node7</title>
<g id="a_Node000007"><a xlink:href="group__qtrace.html" target="_top" xlink:title="API interfaces to print out trace and debug messages.">
<polygon fill="white" stroke="#666666" points="165.88,-19.25 125.12,-19.25 125.12,0 165.88,0 165.88,-19.25"/>
<text text-anchor="middle" x="145.5" y="-5.75" font-family="Helvetica,sans-Serif" font-size="10.00">Trace</text>
</a>
</g>
</g>
<!-- Node1 -->
<g id="Node000001" class="node">
<title>Node1</title>
<g id="a_Node000001"><a xlink:title=" ">
<polygon fill="#999999" stroke="#666666" points="49,-142.25 0,-142.25 0,-123 49,-123 49,-142.25"/>
<text text-anchor="middle" x="24.5" y="-128.75" font-family="Helvetica,sans-Serif" font-size="10.00">Utilities</text>
</a>
</g>
</g>
<!-- Node1&#45;&gt;Node3 -->
<g id="edge2" class="edge">
<title>Node1&#45;&gt;Node3</title>
<path fill="none" stroke="black" d="M32.16,-153.35C40.74,-176.84 57.87,-214.68 85,-236.62 89.47,-240.24 94.64,-243.17 100.02,-245.55"/>
<polygon fill="black" stroke="black" points="35.5,-152.29 28.94,-143.98 28.88,-154.57 35.5,-152.29"/>
</g>
<!-- Node1&#45;&gt;Node4 -->
<g id="edge3" class="edge">
<title>Node1&#45;&gt;Node4</title>
<path fill="none" stroke="black" d="M41.49,-150.87C52.73,-162.83 68.62,-178.15 85,-188.62 89.78,-191.69 95.02,-194.48 100.35,-196.99"/>
<polygon fill="black" stroke="black" points="44.22,-148.66 34.9,-143.63 39.04,-153.38 44.22,-148.66"/>
</g>
<!-- Node1&#45;&gt;Node8 -->
<g id="edge7" class="edge">
<title>Node1&#45;&gt;Node8</title>
<path fill="none" stroke="black" d="M59.96,-143.73C68.16,-146.34 76.88,-149.1 85,-151.62 93.35,-154.22 102.37,-156.98 110.8,-159.53"/>
<polygon fill="black" stroke="black" points="61.25,-140.47 50.66,-140.75 59.11,-147.13 61.25,-140.47"/>
</g>
<!-- Node1&#45;&gt;Node5 -->
<g id="edge4" class="edge">
<title>Node1&#45;&gt;Node5</title>
<path fill="none" stroke="black" d="M60.67,-132.62C79.42,-132.62 102.07,-132.62 119.1,-132.62"/>
<polygon fill="black" stroke="black" points="60.81,-129.13 50.81,-132.63 60.81,-136.13 60.81,-129.13"/>
</g>
<!-- Node1&#45;&gt;Node2 -->
<g id="edge1" class="edge">
<title>Node1&#45;&gt;Node2</title>
<path fill="none" stroke="black" d="M59.99,-120.16C72.79,-115.54 87.49,-110.22 101,-105.34"/>
<polygon fill="black" stroke="black" points="58.93,-116.82 50.72,-123.51 61.31,-123.41 58.93,-116.82"/>
</g>
<!-- Node1&#45;&gt;Node6 -->
<g id="edge5" class="edge">
<title>Node1&#45;&gt;Node6</title>
<path fill="none" stroke="black" d="M38.06,-113.58C48.86,-98.58 65.72,-78.17 85,-65.62 90.45,-62.08 96.62,-59.15 102.86,-56.74"/>
<polygon fill="black" stroke="black" points="35.26,-111.48 32.45,-121.69 41.02,-115.45 35.26,-111.48"/>
</g>
<!-- Node1&#45;&gt;Node7 -->
<g id="edge6" class="edge">
<title>Node1&#45;&gt;Node7</title>
<path fill="none" stroke="black" d="M31.93,-111.95C40.37,-88.2 57.42,-49.68 85,-27.62 96.38,-18.53 112.3,-14.02 124.81,-11.79"/>
<polygon fill="black" stroke="black" points="28.71,-110.54 28.87,-121.14 35.35,-112.76 28.71,-110.54"/>
</g>
</g>
</svg>
