<?xml version="1.0" encoding="UTF-8" standalone="no"?>
<!DOCTYPE svg PUBLIC "-//W3C//DTD SVG 1.1//EN"
 "http://www.w3.org/Graphics/SVG/1.1/DTD/svg11.dtd">
<!-- Generated by graphviz version 7.1.0 (20230121.1956)
 -->
<!-- Title: Inter&#45;Task communication Pages: 1 -->
<svg width="374pt" height="101pt"
 viewBox="0.00 0.00 374.00 101.00" xmlns="http://www.w3.org/2000/svg" xmlns:xlink="http://www.w3.org/1999/xlink">
<g id="graph0" class="graph" transform="scale(1 1) rotate(0) translate(4 97)">
<title>Inter&#45;Task communication</title>
<!-- Node5 -->
<g id="node1" class="node">
<title>Node5</title>
<g id="a_node1"><a xlink:href="group__qeventflags.html" target="_top" xlink:title="API interface for the built&#45;in&#45;task Event Flags.">
<polygon fill="white" stroke="#666666" points="364.5,-93 296.5,-93 296.5,-74 364.5,-74 364.5,-93"/>
<text text-anchor="middle" x="330.5" y="-81" font-family="Helvetica,sans-Serif" font-size="10.00">Event Flags</text>
</a>
</g>
</g>
<!-- Node4 -->
<g id="node2" class="node">
<title>Node4</title>
<g id="a_node2"><a xlink:href="group__qnot.html" target="_top" xlink:title="API interface for task Notifications.">
<polygon fill="white" stroke="#666666" points="366,-56 295,-56 295,-37 366,-37 366,-56"/>
<text text-anchor="middle" x="330.5" y="-44" font-family="Helvetica,sans-Serif" font-size="10.00">Notifications</text>
</a>
</g>
</g>
<!-- Node2 -->
<g id="node3" class="node">
<title>Node2</title>
<g id="a_node3"><a xlink:href="group__qos.html" target="_top" xlink:title=" ">
<polygon fill="white" stroke="#666666" points="94,-56 0,-56 0,-37 94,-37 94,-56"/>
<text text-anchor="middle" x="47" y="-44" font-family="Helvetica,sans-Serif" font-size="10.00">Operative System</text>
</a>
</g>
</g>
<!-- Node1 -->
<g id="node4" class="node">
<title>Node1</title>
<g id="a_node4"><a xlink:title="Inter&#45;Task communication primitives : Queues, Notifications and Event&#45;flags.">
<polygon fill="#999999" stroke="#666666" points="259,-56 130,-56 130,-37 259,-37 259,-56"/>
<text text-anchor="middle" x="194.5" y="-44" font-family="Helvetica,sans-Serif" font-size="10.00">Inter&#45;Task communication</text>
</a>
</g>
</g>
<!-- Node2&#45;&gt;Node1 -->
<g id="edge1" class="edge">
<title>Node2&#45;&gt;Node1</title>
<path fill="none" stroke="black" d="M105.76,-46.5C113.63,-46.5 121.75,-46.5 129.73,-46.5"/>
<polygon fill="black" stroke="black" points="105.95,-43 95.95,-46.5 105.95,-50 105.95,-43"/>
</g>
<!-- Node1&#45;&gt;Node5 -->
<g id="edge4" class="edge">
<title>Node1&#45;&gt;Node5</title>
<path fill="none" stroke="black" d="M242.43,-59.46C260.18,-64.36 280.01,-69.83 296.25,-74.32"/>
<polygon fill="black" stroke="black" points="243.44,-56.11 232.87,-56.82 241.58,-62.85 243.44,-56.11"/>
</g>
<!-- Node1&#45;&gt;Node4 -->
<g id="edge3" class="edge">
<title>Node1&#45;&gt;Node4</title>
<path fill="none" stroke="black" d="M270.73,-46.5C279.02,-46.5 287.14,-46.5 294.58,-46.5"/>
<polygon fill="black" stroke="black" points="270.87,-43 260.87,-46.5 270.87,-50 270.87,-43"/>
</g>
<!-- Node3 -->
<g id="node5" class="node">
<title>Node3</title>
<g id="a_node5"><a xlink:href="group__qqueues.html" target="_top" xlink:title="API interface to create and handle Queues.">
<polygon fill="white" stroke="#666666" points="355.5,-19 305.5,-19 305.5,0 355.5,0 355.5,-19"/>
<text text-anchor="middle" x="330.5" y="-7" font-family="Helvetica,sans-Serif" font-size="10.00">Queues</text>
</a>
</g>
</g>
<!-- Node1&#45;&gt;Node3 -->
<g id="edge2" class="edge">
<title>Node1&#45;&gt;Node3</title>
<path fill="none" stroke="black" d="M242.51,-33.52C263.72,-27.66 287.88,-20.99 305.35,-16.17"/>
<polygon fill="black" stroke="black" points="241.58,-30.15 232.87,-36.18 243.44,-36.89 241.58,-30.15"/>
</g>
</g>
</svg>
