<?xml version="1.0" encoding="UTF-8" standalone="no"?>
<!DOCTYPE svg PUBLIC "-//W3C//DTD SVG 1.1//EN"
 "http://www.w3.org/Graphics/SVG/1.1/DTD/svg11.dtd">
<!-- Generated by graphviz version 12.2.1 (20241206.2353)
 -->
<!-- Title: qSM_Transition_t Pages: 1 -->
<svg width="182pt" height="94pt"
 viewBox="0.00 0.00 182.25 93.75" xmlns="http://www.w3.org/2000/svg" xmlns:xlink="http://www.w3.org/1999/xlink">
<g id="graph0" class="graph" transform="scale(1 1) rotate(0) translate(4 89.75)">
<title>qSM_Transition_t</title>
<!-- Node1 -->
<g id="Node000001" class="node">
<title>Node1</title>
<g id="a_Node000001"><a xlink:title="This structure should be used to define an item for a state transition table.">
<polygon fill="#999999" stroke="#666666" points="136,-19.25 43.5,-19.25 43.5,0 136,0 136,-19.25"/>
<text text-anchor="middle" x="89.75" y="-5.75" font-family="Helvetica,sans-Serif" font-size="10.00">qSM_Transition_t</text>
</a>
</g>
</g>
<!-- Node2 -->
<g id="Node000002" class="node">
<title>Node2</title>
<g id="a_Node000002"><a xlink:href="structq_s_m___handler__t.html" target="_top" xlink:title="The callback argument to handle the state&#45;machine dynamics and provide execution information....">
<polygon fill="white" stroke="#666666" points="83.5,-85.75 0,-85.75 0,-66.5 83.5,-66.5 83.5,-85.75"/>
<text text-anchor="middle" x="41.75" y="-72.25" font-family="Helvetica,sans-Serif" font-size="10.00">qSM_Handler_t</text>
</a>
</g>
</g>
<!-- Node2&#45;&gt;Node1 -->
<g id="edge1_Node000001_Node000002" class="edge">
<title>Node2&#45;&gt;Node1</title>
<g id="a_edge1_Node000001_Node000002"><a xlink:title=" ">
<path fill="none" stroke="#9a32cd" stroke-dasharray="5,2" d="M55.06,-57.24C64.19,-44.97 75.92,-29.21 83.13,-19.52"/>
<polygon fill="#9a32cd" stroke="#9a32cd" points="52.49,-54.83 49.33,-64.94 58.11,-59.01 52.49,-54.83"/>
</a>
</g>
<text text-anchor="middle" x="81.75" y="-39" font-family="Helvetica,sans-Serif" font-size="10.00" fill="grey"> guard</text>
</g>
<!-- Node3 -->
<g id="Node000003" class="node">
<title>Node3</title>
<g id="a_Node000003"><a xlink:href="structq_s_m___state__t.html" target="_top" xlink:title="A state object.">
<polygon fill="white" stroke="#666666" points="174.25,-85.75 101.25,-85.75 101.25,-66.5 174.25,-66.5 174.25,-85.75"/>
<text text-anchor="middle" x="137.75" y="-72.25" font-family="Helvetica,sans-Serif" font-size="10.00">qSM_State_t</text>
</a>
</g>
</g>
<!-- Node3&#45;&gt;Node1 -->
<g id="edge2_Node000001_Node000003" class="edge">
<title>Node3&#45;&gt;Node1</title>
<g id="a_edge2_Node000001_Node000003"><a xlink:title=" ">
<path fill="none" stroke="#9a32cd" stroke-dasharray="5,2" d="M124.44,-57.24C115.31,-44.97 103.58,-29.21 96.37,-19.52"/>
<polygon fill="#9a32cd" stroke="#9a32cd" points="121.39,-59.01 130.17,-64.94 127.01,-54.83 121.39,-59.01"/>
</a>
</g>
<text text-anchor="middle" x="138.37" y="-39" font-family="Helvetica,sans-Serif" font-size="10.00" fill="grey"> nextState</text>
</g>
</g>
</svg>
