<?xml version="1.0" encoding="UTF-8" standalone="no"?>
<!DOCTYPE svg PUBLIC "-//W3C//DTD SVG 1.1//EN"
 "http://www.w3.org/Graphics/SVG/1.1/DTD/svg11.dtd">
<!-- Generated by graphviz version 2.49.3 (20211027.1534)
 -->
<!-- Title: qSM_Transition_t Pages: 1 -->
<svg width="184pt" height="95pt"
 viewBox="0.00 0.00 184.00 95.00" xmlns="http://www.w3.org/2000/svg" xmlns:xlink="http://www.w3.org/1999/xlink">
<g id="graph0" class="graph" transform="scale(1 1) rotate(0) translate(4 91)">
<title>qSM_Transition_t</title>
<polygon fill="white" stroke="transparent" points="-4,4 -4,-91 180,-91 180,4 -4,4"/>
<!-- Node1 -->
<g id="node1" class="node">
<title>Node1</title>
<g id="a_node1"><a xlink:title="This structure should be used to define an item for a state transition table.">
<polygon fill="#bfbfbf" stroke="black" points="43.5,-0.5 43.5,-19.5 136.5,-19.5 136.5,-0.5 43.5,-0.5"/>
<text text-anchor="middle" x="90" y="-7.5" font-family="Helvetica,sans-Serif" font-size="10.00">qSM_Transition_t</text>
</a>
</g>
</g>
<!-- Node2 -->
<g id="node2" class="node">
<title>Node2</title>
<g id="a_node2"><a xlink:href="structq_s_m___handler__t.html" target="_top" xlink:title="The callback argument to handle the state&#45;machine dynamics and provide execution information....">
<polygon fill="white" stroke="black" points="0,-67.5 0,-86.5 84,-86.5 84,-67.5 0,-67.5"/>
<text text-anchor="middle" x="42" y="-74.5" font-family="Helvetica,sans-Serif" font-size="10.00">qSM_Handler_t</text>
</a>
</g>
</g>
<!-- Node2&#45;&gt;Node1 -->
<g id="edge1" class="edge">
<title>Node2&#45;&gt;Node1</title>
<path fill="none" stroke="#9a32cd" stroke-dasharray="5,2" d="M54.62,-58.9C63.95,-46.27 76.26,-29.6 83.63,-19.63"/>
<polygon fill="#9a32cd" stroke="#9a32cd" points="51.6,-57.11 48.47,-67.23 57.23,-61.27 51.6,-57.11"/>
<text text-anchor="middle" x="82.5" y="-41" font-family="Helvetica,sans-Serif" font-size="10.00"> guard</text>
</g>
<!-- Node3 -->
<g id="node3" class="node">
<title>Node3</title>
<g id="a_node3"><a xlink:href="structq_s_m___state__t.html" target="_top" xlink:title="A state object.">
<polygon fill="white" stroke="black" points="102,-67.5 102,-86.5 176,-86.5 176,-67.5 102,-67.5"/>
<text text-anchor="middle" x="139" y="-74.5" font-family="Helvetica,sans-Serif" font-size="10.00">qSM_State_t</text>
</a>
</g>
</g>
<!-- Node3&#45;&gt;Node1 -->
<g id="edge2" class="edge">
<title>Node3&#45;&gt;Node1</title>
<path fill="none" stroke="#9a32cd" stroke-dasharray="5,2" d="M126.11,-58.9C116.59,-46.27 104.02,-29.6 96.5,-19.63"/>
<polygon fill="#9a32cd" stroke="#9a32cd" points="123.58,-61.36 132.39,-67.23 129.17,-57.14 123.58,-61.36"/>
<text text-anchor="middle" x="139" y="-41" font-family="Helvetica,sans-Serif" font-size="10.00"> nextState</text>
</g>
</g>
</svg>
