<?xml version="1.0" encoding="UTF-8" standalone="no"?>
<!DOCTYPE svg PUBLIC "-//W3C//DTD SVG 1.1//EN"
 "http://www.w3.org/Graphics/SVG/1.1/DTD/svg11.dtd">
<!-- Generated by graphviz version 7.1.0 (20230121.1956)
 -->
<!-- Title: qSM_Transition_t Pages: 1 -->
<svg width="184pt" height="93pt"
 viewBox="0.00 0.00 184.00 93.00" xmlns="http://www.w3.org/2000/svg" xmlns:xlink="http://www.w3.org/1999/xlink">
<g id="graph0" class="graph" transform="scale(1 1) rotate(0) translate(4 89)">
<title>qSM_Transition_t</title>
<!-- Node1 -->
<g id="node1" class="node">
<title>Node1</title>
<g id="a_node1"><a xlink:title="This structure should be used to define an item for a state transition table.">
<polygon fill="#999999" stroke="#666666" points="136.5,-19 43.5,-19 43.5,0 136.5,0 136.5,-19"/>
<text text-anchor="middle" x="90" y="-7" font-family="Helvetica,sans-Serif" font-size="10.00">qSM_Transition_t</text>
</a>
</g>
</g>
<!-- Node2 -->
<g id="node2" class="node">
<title>Node2</title>
<g id="a_node2"><a xlink:href="structq_s_m___handler__t.html" target="_top" xlink:title="The callback argument to handle the state&#45;machine dynamics and provide execution information....">
<polygon fill="white" stroke="#666666" points="84,-85 0,-85 0,-66 84,-66 84,-85"/>
<text text-anchor="middle" x="42" y="-73" font-family="Helvetica,sans-Serif" font-size="10.00">qSM_Handler_t</text>
</a>
</g>
</g>
<!-- Node2&#45;&gt;Node1 -->
<g id="edge1" class="edge">
<title>Node2&#45;&gt;Node1</title>
<path fill="none" stroke="#9a32cd" stroke-dasharray="5,2" d="M55.58,-56.4C64.67,-44.27 76.24,-28.84 83.38,-19.32"/>
<polygon fill="#9a32cd" stroke="#9a32cd" points="52.78,-54.29 49.58,-64.39 58.38,-58.49 52.78,-54.29"/>
<text text-anchor="middle" x="82.5" y="-40" font-family="Helvetica,sans-Serif" font-size="10.00"> guard</text>
</g>
<!-- Node3 -->
<g id="node3" class="node">
<title>Node3</title>
<g id="a_node3"><a xlink:href="structq_s_m___state__t.html" target="_top" xlink:title="A state object.">
<polygon fill="white" stroke="#666666" points="176,-85 102,-85 102,-66 176,-66 176,-85"/>
<text text-anchor="middle" x="139" y="-73" font-family="Helvetica,sans-Serif" font-size="10.00">qSM_State_t</text>
</a>
</g>
</g>
<!-- Node3&#45;&gt;Node1 -->
<g id="edge2" class="edge">
<title>Node3&#45;&gt;Node1</title>
<path fill="none" stroke="#9a32cd" stroke-dasharray="5,2" d="M125.42,-56.76C116.09,-44.58 104.12,-28.94 96.76,-19.32"/>
<polygon fill="#9a32cd" stroke="#9a32cd" points="122.41,-58.59 131.27,-64.4 127.97,-54.33 122.41,-58.59"/>
<text text-anchor="middle" x="139" y="-40" font-family="Helvetica,sans-Serif" font-size="10.00"> nextState</text>
</g>
</g>
</svg>
