<?xml version="1.0" encoding="UTF-8" standalone="no"?>
<!DOCTYPE svg PUBLIC "-//W3C//DTD SVG 1.1//EN"
 "http://www.w3.org/Graphics/SVG/1.1/DTD/svg11.dtd">
<!-- Generated by graphviz version 7.1.0 (20230121.1956)
 -->
<!-- Title: Operative System Pages: 1 -->
<svg width="266pt" height="212pt"
 viewBox="0.00 0.00 266.00 212.00" xmlns="http://www.w3.org/2000/svg" xmlns:xlink="http://www.w3.org/1999/xlink">
<g id="graph0" class="graph" transform="scale(1 1) rotate(0) translate(4 208)">
<title>Operative System</title>
<polygon fill="white" stroke="none" points="-4,4 -4,-208 262,-208 262,4 -4,4"/>
<!-- Node2 -->
<g id="node1" class="node">
<title>Node2</title>
<g id="a_node1"><a xlink:href="group__qtaskcreation.html" target="_top" xlink:title="Kernel API interface to create/remove tasks and perform special OS operations.">
<polygon fill="white" stroke="black" points="244,-204 144,-204 144,-185 244,-185 244,-204"/>
<text text-anchor="middle" x="194" y="-192" font-family="Helvetica,sans-Serif" font-size="10.00">Scheduler Interface</text>
</a>
</g>
</g>
<!-- Node1 -->
<g id="node2" class="node">
<title>Node1</title>
<g id="a_node2"><a xlink:title=" ">
<polygon fill="#bfbfbf" stroke="black" points="94,-111 0,-111 0,-92 94,-92 94,-111"/>
<text text-anchor="middle" x="47" y="-99" font-family="Helvetica,sans-Serif" font-size="10.00">Operative System</text>
</a>
</g>
</g>
<!-- Node1&#45;&gt;Node2 -->
<g id="edge1" class="edge">
<title>Node1&#45;&gt;Node2</title>
<path fill="none" stroke="black" d="M63.46,-119.87C78.73,-136.88 103.57,-161.73 130,-176.5 135.66,-179.66 141.92,-182.31 148.24,-184.51"/>
<polygon fill="black" stroke="black" points="66.22,-117.7 57.01,-112.47 60.95,-122.31 66.22,-117.7"/>
</g>
<!-- Node5 -->
<g id="node3" class="node">
<title>Node5</title>
<g id="a_node3"><a xlink:href="group__qclock.html" target="_top" xlink:title="Clock and time manipulation interface used by the entire OS.">
<polygon fill="white" stroke="black" points="214.5,-167 173.5,-167 173.5,-148 214.5,-148 214.5,-167"/>
<text text-anchor="middle" x="194" y="-155" font-family="Helvetica,sans-Serif" font-size="10.00">Clock</text>
</a>
</g>
</g>
<!-- Node1&#45;&gt;Node5 -->
<g id="edge4" class="edge">
<title>Node1&#45;&gt;Node5</title>
<path fill="none" stroke="black" d="M77.18,-116.37C92.63,-123.9 112.08,-132.83 130,-139.5 144.18,-144.77 160.63,-149.43 173.16,-152.68"/>
<polygon fill="black" stroke="black" points="79.06,-113.4 68.54,-112.1 75.96,-119.67 79.06,-113.4"/>
</g>
<!-- Node3 -->
<g id="node4" class="node">
<title>Node3</title>
<g id="a_node4"><a xlink:href="group__qtaskmanip.html" target="_top" xlink:title="API interface to manage tasks.">
<polygon fill="white" stroke="black" points="237,-130 151,-130 151,-111 237,-111 237,-130"/>
<text text-anchor="middle" x="194" y="-118" font-family="Helvetica,sans-Serif" font-size="10.00">Managing tasks</text>
</a>
</g>
</g>
<!-- Node1&#45;&gt;Node3 -->
<g id="edge2" class="edge">
<title>Node1&#45;&gt;Node3</title>
<path fill="none" stroke="black" d="M105.55,-109.04C120.59,-111.01 136.52,-113.1 150.6,-114.94"/>
<polygon fill="black" stroke="black" points="106.15,-105.59 95.78,-107.76 105.24,-112.53 106.15,-105.59"/>
</g>
<!-- Node6 -->
<g id="node5" class="node">
<title>Node6</title>
<g id="a_node5"><a xlink:href="group__qcritical.html" target="_top" xlink:title="APIs to handle entry/exit actions in Critical sections.">
<polygon fill="white" stroke="black" points="217.5,-93 170.5,-93 170.5,-74 217.5,-74 217.5,-93"/>
<text text-anchor="middle" x="194" y="-81" font-family="Helvetica,sans-Serif" font-size="10.00">Critical</text>
</a>
</g>
</g>
<!-- Node1&#45;&gt;Node6 -->
<g id="edge5" class="edge">
<title>Node1&#45;&gt;Node6</title>
<path fill="none" stroke="black" d="M105.54,-94.36C128.19,-91.55 152.88,-88.48 170.23,-86.33"/>
<polygon fill="black" stroke="black" points="105.27,-90.86 95.78,-95.57 106.13,-97.81 105.27,-90.86"/>
</g>
<!-- Node4 -->
<g id="node6" class="node">
<title>Node4</title>
<g id="a_node6"><a xlink:href="group__qpriv.html" target="_top" xlink:title="Inter&#45;Task communication primitives : Queues, Notifications and Event&#45;flags.">
<polygon fill="white" stroke="black" points="258,-56 130,-56 130,-37 258,-37 258,-56"/>
<text text-anchor="middle" x="194" y="-44" font-family="Helvetica,sans-Serif" font-size="10.00">Inter&#45;Task communication</text>
</a>
</g>
</g>
<!-- Node1&#45;&gt;Node4 -->
<g id="edge3" class="edge">
<title>Node1&#45;&gt;Node4</title>
<path fill="none" stroke="black" d="M78.99,-86.84C94.18,-79.92 112.86,-71.82 130,-65.5 138.79,-62.26 148.41,-59.14 157.43,-56.41"/>
<polygon fill="black" stroke="black" points="77.6,-83.62 69.99,-90.99 80.53,-89.98 77.6,-83.62"/>
</g>
<!-- Node7 -->
<g id="node7" class="node">
<title>Node7</title>
<g id="a_node7"><a xlink:href="group__qtypes.html" target="_top" xlink:title="Sets of types having specified widths used to design the entire OS. It also define macros directives ...">
<polygon fill="white" stroke="black" points="242.5,-19 145.5,-19 145.5,0 242.5,0 242.5,-19"/>
<text text-anchor="middle" x="194" y="-7" font-family="Helvetica,sans-Serif" font-size="10.00">Types and macros</text>
</a>
</g>
</g>
<!-- Node1&#45;&gt;Node7 -->
<g id="edge6" class="edge">
<title>Node1&#45;&gt;Node7</title>
<path fill="none" stroke="black" d="M63.61,-83.73C78.98,-67.24 103.9,-43.11 130,-28.5 136.48,-24.87 143.73,-21.86 150.94,-19.39"/>
<polygon fill="black" stroke="black" points="61.25,-81.12 57.12,-90.87 66.43,-85.82 61.25,-81.12"/>
</g>
</g>
</svg>
