<?xml version="1.0" encoding="UTF-8" standalone="no"?>
<!DOCTYPE svg PUBLIC "-//W3C//DTD SVG 1.1//EN"
 "http://www.w3.org/Graphics/SVG/1.1/DTD/svg11.dtd">
<!-- Generated by graphviz version 7.1.0 (20230121.1956)
 -->
<!-- Title: Utilities Pages: 1 -->
<svg width="216pt" height="273pt"
 viewBox="0.00 0.00 216.00 273.00" xmlns="http://www.w3.org/2000/svg" xmlns:xlink="http://www.w3.org/1999/xlink">
<g id="graph0" class="graph" transform="scale(1 1) rotate(0) translate(4 269)">
<title>Utilities</title>
<polygon fill="white" stroke="none" points="-4,4 -4,-269 212,-269 212,4 -4,4"/>
<!-- Node6 -->
<g id="node1" class="node">
<title>Node6</title>
<g id="a_node1"><a xlink:href="group__qresponse.html" target="_top" xlink:title="API to simplify the handling of requested responses from terminal interfaces.">
<polygon fill="white" stroke="black" points="194,-265 99,-265 99,-246 194,-246 194,-265"/>
<text text-anchor="middle" x="146.5" y="-253" font-family="Helvetica,sans-Serif" font-size="10.00">Response handler</text>
</a>
</g>
</g>
<!-- Node1 -->
<g id="node2" class="node">
<title>Node1</title>
<g id="a_node2"><a xlink:title=" ">
<polygon fill="#bfbfbf" stroke="black" points="49,-142 0,-142 0,-123 49,-123 49,-142"/>
<text text-anchor="middle" x="24.5" y="-130" font-family="Helvetica,sans-Serif" font-size="10.00">Utilities</text>
</a>
</g>
</g>
<!-- Node1&#45;&gt;Node6 -->
<g id="edge5" class="edge">
<title>Node1&#45;&gt;Node6</title>
<path fill="none" stroke="black" d="M32.15,-153.25C40.71,-176.76 57.82,-214.62 85,-236.5 89.55,-240.16 94.8,-243.12 100.28,-245.51"/>
<polygon fill="black" stroke="black" points="35.48,-152.19 28.93,-143.86 28.86,-154.46 35.48,-152.19"/>
</g>
<!-- Node2 -->
<g id="node3" class="node">
<title>Node2</title>
<g id="a_node3"><a xlink:href="group__qlists.html" target="_top" xlink:title="The provided list implementation uses a generic doubly&#45;linked approach in which each node,...">
<polygon fill="white" stroke="black" points="201.5,-227.5 91.5,-227.5 91.5,-197.5 201.5,-197.5 201.5,-227.5"/>
<text text-anchor="start" x="99.5" y="-215.5" font-family="Helvetica,sans-Serif" font-size="10.00">Generic double&#45;linked</text>
<text text-anchor="middle" x="146.5" y="-204.5" font-family="Helvetica,sans-Serif" font-size="10.00"> lists</text>
</a>
</g>
</g>
<!-- Node1&#45;&gt;Node2 -->
<g id="edge1" class="edge">
<title>Node1&#45;&gt;Node2</title>
<path fill="none" stroke="black" d="M41.47,-150.78C52.7,-162.75 68.59,-178.07 85,-188.5 89.96,-191.65 95.4,-194.52 100.92,-197.07"/>
<polygon fill="black" stroke="black" points="44.2,-148.57 34.88,-143.52 39.02,-153.28 44.2,-148.57"/>
</g>
<!-- Node8 -->
<g id="node4" class="node">
<title>Node8</title>
<g id="a_node4"><a xlink:href="group__qflm.html" target="_top" xlink:title="General purpose Function&#45;like Macros.">
<polygon fill="white" stroke="black" points="208,-179 85,-179 85,-160 208,-160 208,-179"/>
<text text-anchor="middle" x="146.5" y="-167" font-family="Helvetica,sans-Serif" font-size="10.00">General purpose macros</text>
</a>
</g>
</g>
<!-- Node1&#45;&gt;Node8 -->
<g id="edge7" class="edge">
<title>Node1&#45;&gt;Node8</title>
<path fill="none" stroke="black" d="M60.45,-143.79C68.5,-146.35 77.04,-149.05 85,-151.5 93.59,-154.15 102.88,-156.95 111.55,-159.53"/>
<polygon fill="black" stroke="black" points="61.53,-140.46 50.94,-140.74 59.39,-147.13 61.53,-140.46"/>
</g>
<!-- Node7 -->
<g id="node5" class="node">
<title>Node7</title>
<g id="a_node5"><a xlink:href="group__qtrace.html" target="_top" xlink:title="API interfaces to print out trace and debug messages.">
<polygon fill="white" stroke="black" points="167,-142 126,-142 126,-123 167,-123 167,-142"/>
<text text-anchor="middle" x="146.5" y="-130" font-family="Helvetica,sans-Serif" font-size="10.00">Trace</text>
</a>
</g>
</g>
<!-- Node1&#45;&gt;Node7 -->
<g id="edge6" class="edge">
<title>Node1&#45;&gt;Node7</title>
<path fill="none" stroke="black" d="M60.93,-132.5C82,-132.5 107.97,-132.5 125.52,-132.5"/>
<polygon fill="black" stroke="black" points="61.01,-129 51.01,-132.5 61.01,-136 61.01,-129"/>
</g>
<!-- Node4 -->
<g id="node6" class="node">
<title>Node4</title>
<g id="a_node6"><a xlink:href="group__qedgecheck.html" target="_top" xlink:title="An interface to manage and simplify the value(with edge&#45;checking) of incoming digital&#45;signal groups.">
<polygon fill="white" stroke="black" points="197,-104.5 96,-104.5 96,-74.5 197,-74.5 197,-104.5"/>
<text text-anchor="start" x="104" y="-92.5" font-family="Helvetica,sans-Serif" font-size="10.00">I/O Groups for edge</text>
<text text-anchor="middle" x="146.5" y="-81.5" font-family="Helvetica,sans-Serif" font-size="10.00"> checking</text>
</a>
</g>
</g>
<!-- Node1&#45;&gt;Node4 -->
<g id="edge3" class="edge">
<title>Node1&#45;&gt;Node4</title>
<path fill="none" stroke="black" d="M60.09,-120.11C73.35,-115.35 88.65,-109.87 102.6,-104.87"/>
<polygon fill="black" stroke="black" points="59.15,-116.72 50.92,-123.39 61.51,-123.31 59.15,-116.72"/>
</g>
<!-- Node5 -->
<g id="node7" class="node">
<title>Node5</title>
<g id="a_node7"><a xlink:href="group__qioutils.html" target="_top" xlink:title="API for input/output utilities and safe string interfaces.">
<polygon fill="white" stroke="black" points="172.5,-56 120.5,-56 120.5,-37 172.5,-37 172.5,-56"/>
<text text-anchor="middle" x="146.5" y="-44" font-family="Helvetica,sans-Serif" font-size="10.00">I/O Utils</text>
</a>
</g>
</g>
<!-- Node1&#45;&gt;Node5 -->
<g id="edge4" class="edge">
<title>Node1&#45;&gt;Node5</title>
<path fill="none" stroke="black" d="M38.04,-113.43C48.83,-98.41 65.69,-78 85,-65.5 95.54,-58.68 108.69,-54.17 120.03,-51.26"/>
<polygon fill="black" stroke="black" points="35.24,-111.33 32.44,-121.55 41,-115.31 35.24,-111.33"/>
</g>
<!-- Node3 -->
<g id="node8" class="node">
<title>Node3</title>
<g id="a_node8"><a xlink:href="group__qbsbuffers.html" target="_top" xlink:title="An interrupt&#45;safe byte&#45;sized ring buffer interface.">
<polygon fill="white" stroke="black" points="194.5,-19 98.5,-19 98.5,0 194.5,0 194.5,-19"/>
<text text-anchor="middle" x="146.5" y="-7" font-family="Helvetica,sans-Serif" font-size="10.00">Byte&#45;Sized buffers</text>
</a>
</g>
</g>
<!-- Node1&#45;&gt;Node3 -->
<g id="edge2" class="edge">
<title>Node1&#45;&gt;Node3</title>
<path fill="none" stroke="black" d="M32.15,-111.75C40.71,-88.24 57.82,-50.38 85,-28.5 89.55,-24.84 94.8,-21.88 100.28,-19.49"/>
<polygon fill="black" stroke="black" points="28.86,-110.54 28.93,-121.14 35.48,-112.81 28.86,-110.54"/>
</g>
</g>
</svg>
