<?xml version="1.0" encoding="UTF-8" standalone="no"?>
<!DOCTYPE svg PUBLIC "-//W3C//DTD SVG 1.1//EN"
 "http://www.w3.org/Graphics/SVG/1.1/DTD/svg11.dtd">
<!-- Generated by graphviz version 7.1.0 (20230121.1956)
 -->
<!-- Title: Kernel extensions Pages: 1 -->
<svg width="276pt" height="175pt"
 viewBox="0.00 0.00 276.00 175.00" xmlns="http://www.w3.org/2000/svg" xmlns:xlink="http://www.w3.org/1999/xlink">
<g id="graph0" class="graph" transform="scale(1 1) rotate(0) translate(4 171)">
<title>Kernel extensions</title>
<polygon fill="white" stroke="none" points="-4,4 -4,-171 272,-171 272,4 -4,4"/>
<!-- Node3 -->
<g id="node1" class="node">
<title>Node3</title>
<g id="a_node1"><a xlink:href="group__qstimers.html" target="_top" xlink:title="API interface for the STimers extension.">
<polygon fill="white" stroke="black" points="242.5,-167 156.5,-167 156.5,-148 242.5,-148 242.5,-167"/>
<text text-anchor="middle" x="199.5" y="-155" font-family="Helvetica,sans-Serif" font-size="10.00">Software&#45;Timers</text>
</a>
</g>
</g>
<!-- Node4 -->
<g id="node2" class="node">
<title>Node4</title>
<g id="a_node2"><a xlink:href="group__qcoroutines.html" target="_top" xlink:title="API interface for the Co&#45;Routines extension.">
<polygon fill="white" stroke="black" points="234.5,-130 164.5,-130 164.5,-111 234.5,-111 234.5,-130"/>
<text text-anchor="middle" x="199.5" y="-118" font-family="Helvetica,sans-Serif" font-size="10.00">Co&#45;Routines</text>
</a>
</g>
</g>
<!-- Node5 -->
<g id="node3" class="node">
<title>Node5</title>
<g id="a_node3"><a xlink:href="group__qatcli.html" target="_top" xlink:title="API for the AT Command Line Interface extension.">
<polygon fill="white" stroke="black" points="268,-93 131,-93 131,-74 268,-74 268,-93"/>
<text text-anchor="middle" x="199.5" y="-81" font-family="Helvetica,sans-Serif" font-size="10.00">AT Command Line Interface</text>
</a>
</g>
</g>
<!-- Node2 -->
<g id="node4" class="node">
<title>Node2</title>
<g id="a_node4"><a xlink:href="group__qfsm.html" target="_top" xlink:title="API interface of the Finite State Machines (FSM) extension.">
<polygon fill="white" stroke="black" points="255.5,-56 143.5,-56 143.5,-37 255.5,-37 255.5,-56"/>
<text text-anchor="middle" x="199.5" y="-44" font-family="Helvetica,sans-Serif" font-size="10.00">Finite State Machines</text>
</a>
</g>
</g>
<!-- Node6 -->
<g id="node5" class="node">
<title>Node6</title>
<g id="a_node5"><a xlink:href="group__qmemmang.html" target="_top" xlink:title="API interface for the Memory Management extension.">
<polygon fill="white" stroke="black" points="255,-19 144,-19 144,0 255,0 255,-19"/>
<text text-anchor="middle" x="199.5" y="-7" font-family="Helvetica,sans-Serif" font-size="10.00">Memory Management</text>
</a>
</g>
</g>
<!-- Node1 -->
<g id="node6" class="node">
<title>Node1</title>
<g id="a_node6"><a xlink:title=" ">
<polygon fill="#bfbfbf" stroke="black" points="95,-93 0,-93 0,-74 95,-74 95,-93"/>
<text text-anchor="middle" x="47.5" y="-81" font-family="Helvetica,sans-Serif" font-size="10.00">Kernel extensions</text>
</a>
</g>
</g>
<!-- Node1&#45;&gt;Node3 -->
<g id="edge2" class="edge">
<title>Node1&#45;&gt;Node3</title>
<path fill="none" stroke="black" d="M69.28,-100.52C85.29,-112.89 108.44,-129.2 131,-139.5 138.94,-143.13 147.76,-146.14 156.32,-148.59"/>
<polygon fill="black" stroke="black" points="71.5,-97.82 61.49,-94.36 67.16,-103.31 71.5,-97.82"/>
</g>
<!-- Node1&#45;&gt;Node4 -->
<g id="edge3" class="edge">
<title>Node1&#45;&gt;Node4</title>
<path fill="none" stroke="black" d="M99.85,-96.17C121.13,-101.42 145.24,-107.36 164.3,-112.06"/>
<polygon fill="black" stroke="black" points="100.71,-92.77 90.17,-93.78 99.04,-99.57 100.71,-92.77"/>
</g>
<!-- Node1&#45;&gt;Node5 -->
<g id="edge4" class="edge">
<title>Node1&#45;&gt;Node5</title>
<path fill="none" stroke="black" d="M106.51,-83.5C114.43,-83.5 122.62,-83.5 130.69,-83.5"/>
<polygon fill="black" stroke="black" points="106.65,-80 96.65,-83.5 106.65,-87 106.65,-80"/>
</g>
<!-- Node1&#45;&gt;Node2 -->
<g id="edge1" class="edge">
<title>Node1&#45;&gt;Node2</title>
<path fill="none" stroke="black" d="M99.64,-70.88C118.76,-66.17 140.19,-60.88 158.19,-56.44"/>
<polygon fill="black" stroke="black" points="99.04,-67.43 90.17,-73.22 100.71,-74.23 99.04,-67.43"/>
</g>
<!-- Node1&#45;&gt;Node6 -->
<g id="edge5" class="edge">
<title>Node1&#45;&gt;Node6</title>
<path fill="none" stroke="black" d="M69.65,-66.68C85.7,-54.62 108.73,-38.75 131,-28.5 138.63,-24.99 147.05,-21.99 155.28,-19.48"/>
<polygon fill="black" stroke="black" points="67.62,-63.83 61.83,-72.7 71.89,-69.38 67.62,-63.83"/>
</g>
</g>
</svg>
