<?xml version="1.0" encoding="UTF-8" standalone="no"?>
<!DOCTYPE svg PUBLIC "-//W3C//DTD SVG 1.1//EN"
 "http://www.w3.org/Graphics/SVG/1.1/DTD/svg11.dtd">
<!-- Generated by graphviz version 7.1.0 (20230121.1956)
 -->
<!-- Title: qSM_Transition_t Pages: 1 -->
<svg width="184pt" height="95pt"
 viewBox="0.00 0.00 183.50 95.00" xmlns="http://www.w3.org/2000/svg" xmlns:xlink="http://www.w3.org/1999/xlink">
<g id="graph0" class="graph" transform="scale(1 1) rotate(0) translate(4 91)">
<title>qSM_Transition_t</title>
<polygon fill="white" stroke="none" points="-4,4 -4,-91 179.5,-91 179.5,4 -4,4"/>
<!-- Node1 -->
<g id="node1" class="node">
<title>Node1</title>
<g id="a_node1"><a xlink:title="This structure should be used to define an item for a state transition table.">
<polygon fill="#bfbfbf" stroke="black" points="39,-0.5 39,-19.5 131,-19.5 131,-0.5 39,-0.5"/>
<text text-anchor="middle" x="85" y="-7.5" font-family="Helvetica,sans-Serif" font-size="10.00">qSM_Transition_t</text>
</a>
</g>
</g>
<!-- Node2 -->
<g id="node2" class="node">
<title>Node2</title>
<g id="a_node2"><a xlink:href="structq_s_m___state__t.html" target="_top" xlink:title="A state object.">
<polygon fill="white" stroke="black" points="0,-67.5 0,-86.5 74,-86.5 74,-67.5 0,-67.5"/>
<text text-anchor="middle" x="37" y="-74.5" font-family="Helvetica,sans-Serif" font-size="10.00">qSM_State_t</text>
</a>
</g>
</g>
<!-- Node2&#45;&gt;Node1 -->
<g id="edge1" class="edge">
<title>Node2&#45;&gt;Node1</title>
<path fill="none" stroke="#9a32cd" stroke-dasharray="5,2" d="M50.04,-58.34C59.42,-45.64 71.64,-29.09 78.88,-19.29"/>
<polygon fill="#9a32cd" stroke="#9a32cd" points="47.3,-56.16 44.17,-66.28 52.93,-60.32 47.3,-56.16"/>
<text text-anchor="middle" x="87" y="-41" font-family="Helvetica,sans-Serif" font-size="10.00"> nextState</text>
</g>
<!-- Node3 -->
<g id="node3" class="node">
<title>Node3</title>
<g id="a_node3"><a xlink:href="structq_s_m___handler__t.html" target="_top" xlink:title="The callback argument to handle the state&#45;machine dynamics and provide execution information....">
<polygon fill="white" stroke="black" points="92.5,-67.5 92.5,-86.5 175.5,-86.5 175.5,-67.5 92.5,-67.5"/>
<text text-anchor="middle" x="134" y="-74.5" font-family="Helvetica,sans-Serif" font-size="10.00">qSM_Handler_t</text>
</a>
</g>
</g>
<!-- Node3&#45;&gt;Node1 -->
<g id="edge2" class="edge">
<title>Node3&#45;&gt;Node1</title>
<path fill="none" stroke="#9a32cd" stroke-dasharray="5,2" d="M124.75,-57.83C121.12,-51.34 116.7,-44.12 112,-38 106.83,-31.27 100.08,-24.52 94.62,-19.45"/>
<polygon fill="#9a32cd" stroke="#9a32cd" points="121.53,-59.23 129.31,-66.42 127.71,-55.95 121.53,-59.23"/>
<text text-anchor="middle" x="133" y="-41" font-family="Helvetica,sans-Serif" font-size="10.00"> guard</text>
</g>
</g>
</svg>
